<svg width="32" height="32" viewBox="0 0 32 32" fill="none" xmlns="http://www.w3.org/2000/svg">
<path d="M7.64648 20.2202V11.9851H9.37438V19.8893" stroke="black" stroke-miterlimit="10" stroke-linecap="round" stroke-linejoin="round"/>
<path d="M25.5879 24.2275H26.8746C27.3893 24.2275 27.7937 24.6319 27.7937 25.1466C27.7937 25.6613 27.3893 26.0657 26.8746 26.0657H25.5879" stroke="black" stroke-miterlimit="10" stroke-linecap="round" stroke-linejoin="round"/>
<path d="M11.9121 24.2275H20.8825" stroke="black" stroke-miterlimit="10" stroke-linecap="round" stroke-linejoin="round"/>
<path d="M7.1323 26.0289H5.91909C5.4044 26.0289 5 25.6245 5 25.1098C5 24.5951 5.4044 24.1907 5.91909 24.1907H7.16906" stroke="black" stroke-miterlimit="10" stroke-linecap="round" stroke-linejoin="round"/>
<path d="M20.7722 26.0288H11.9121" stroke="black" stroke-miterlimit="10" stroke-linecap="round" stroke-linejoin="round"/>
<path d="M27.095 24.2273V20.9554C27.095 20.1833 26.47 19.5951 25.7348 19.5951H25.1833L23.8231 16.8011C23.3451 15.8084 22.3525 15.2202 21.2864 15.2202H16.2865C14.338 15.2202 12.4998 16.3231 11.6175 18.051L10.6249 19.926L6.72791 20.7348C6.06616 20.8818 5.625 21.4333 5.625 22.095V24.2273" stroke="black" stroke-miterlimit="10" stroke-linecap="round" stroke-linejoin="round"/>
<path d="M23.6392 20.5143L22.3892 17.6467C22.1686 17.0953 21.6172 16.7644 21.0289 16.7644H16.3232C14.8894 16.7644 13.6027 17.5364 12.9409 18.8232L12.0586 20.5511L23.6392 20.5143Z" stroke="black" stroke-miterlimit="10" stroke-linecap="round" stroke-linejoin="round"/>
<path d="M18.5664 16.7644V20.5143" stroke="black" stroke-miterlimit="10" stroke-linecap="round" stroke-linejoin="round"/>
<path d="M25.6978 25.2566C25.6978 26.6169 24.5949 27.7198 23.2347 27.7198C21.8744 27.7198 20.7715 26.6169 20.7715 25.2566C20.7715 23.8964 21.8744 22.7935 23.2347 22.7935C24.5949 22.7935 25.6978 23.8964 25.6978 25.2566Z" stroke="black" stroke-miterlimit="10" stroke-linecap="round" stroke-linejoin="round"/>
<path d="M12.022 25.2566C12.022 26.6169 10.9191 27.7198 9.55887 27.7198C8.19862 27.7198 7.0957 26.6169 7.0957 25.2566C7.0957 23.8964 8.19862 22.7935 9.55887 22.7935C10.9191 22.7935 12.022 23.8964 12.022 25.2566Z" stroke="black" stroke-miterlimit="10" stroke-linecap="round" stroke-linejoin="round"/>
<path d="M10.5516 25.2565C10.5516 25.808 10.1105 26.2492 9.55903 26.2492C9.00757 26.2492 8.56641 25.808 8.56641 25.2565C8.56641 24.7051 9.00757 24.2639 9.55903 24.2639C10.1105 24.2639 10.5516 24.7051 10.5516 25.2565Z" stroke="black" stroke-miterlimit="10" stroke-linecap="round" stroke-linejoin="round"/>
<path d="M24.2645 25.2565C24.2645 25.808 23.8234 26.2492 23.2719 26.2492C22.7205 26.2492 22.2793 25.808 22.2793 25.2565C22.2793 24.7051 22.7205 24.2639 23.2719 24.2639C23.8234 24.2639 24.2645 24.7051 24.2645 25.2565Z" stroke="black" stroke-miterlimit="10" stroke-linecap="round" stroke-linejoin="round"/>
<path d="M10.8087 11.9851H6.2132C5.55146 11.9851 5 11.4337 5 10.7719V6.2132C5 5.55146 5.55146 5 6.2132 5H10.8087C11.4704 5 12.0219 5.55146 12.0219 6.2132V10.8087C12.0219 11.4337 11.4704 11.9851 10.8087 11.9851Z" stroke="black" stroke-miterlimit="10" stroke-linecap="round" stroke-linejoin="round"/>
<path d="M7.2793 6.25V10.6984" stroke="black" stroke-miterlimit="10" stroke-linecap="round" stroke-linejoin="round"/>
<path d="M8.4925 8.71317H7.2793V6.25H8.4925C9.15425 6.25 9.7057 6.80146 9.7057 7.4632C9.74247 8.16172 9.19101 8.71317 8.4925 8.71317Z" stroke="black" stroke-miterlimit="10" stroke-linecap="round" stroke-linejoin="round"/>
<path d="M24.0804 9.37493C24.0804 10.5146 23.1613 11.4337 22.0217 11.4337C20.882 11.4337 19.9629 10.5146 19.9629 9.37493C19.9629 8.23526 20.882 7.31616 22.0217 7.31616C23.1613 7.31616 24.0804 8.23526 24.0804 9.37493Z" stroke="black" stroke-miterlimit="10" stroke-linecap="round" stroke-linejoin="round"/>
<path d="M22.0215 5.44116V5.95585" stroke="black" stroke-miterlimit="10" stroke-linecap="round" stroke-linejoin="round"/>
<path d="M22.0215 12.7939V13.3454" stroke="black" stroke-miterlimit="10" stroke-linecap="round" stroke-linejoin="round"/>
<path d="M18.0508 9.375H18.6022" stroke="black" stroke-miterlimit="10" stroke-linecap="round" stroke-linejoin="round"/>
<path d="M25.4395 9.375H25.9909" stroke="black" stroke-miterlimit="10" stroke-linecap="round" stroke-linejoin="round"/>
<path d="M19.2266 6.58081L19.5942 6.98521" stroke="black" stroke-miterlimit="10" stroke-linecap="round" stroke-linejoin="round"/>
<path d="M24.4473 11.8013L24.8149 12.2057" stroke="black" stroke-miterlimit="10" stroke-linecap="round" stroke-linejoin="round"/>
<path d="M19.2266 12.2057L19.5942 11.8013" stroke="black" stroke-miterlimit="10" stroke-linecap="round" stroke-linejoin="round"/>
<path d="M24.4473 6.98521L24.8149 6.58081" stroke="black" stroke-miterlimit="10" stroke-linecap="round" stroke-linejoin="round"/>
</svg>
