<svg width="24" height="30" viewBox="0 0 24 30" fill="none" xmlns="http://www.w3.org/2000/svg">
<g clip-path="url(#clip0_229_4529)">
<path d="M23.88 11.863C23.8743 6.16796 19.8332 1.30946 14.1841 0.199755C7.92533 -1.03106 1.68924 3.01064 0.274141 9.1929C-0.372438 12.0066 0.0557791 14.6879 1.1958 17.296C2.27627 19.7689 3.82466 21.9405 5.5914 23.9627C7.35248 25.9765 9.30356 27.7932 11.4191 29.4324C11.8644 29.7788 11.9863 29.7817 12.4259 29.4352C15.4007 27.1088 18.0749 24.4894 20.2756 21.4166C21.7389 19.3746 22.947 17.1975 23.517 14.733C23.7325 13.7951 23.8232 12.829 23.9707 11.877C23.9395 11.8714 23.9111 11.8658 23.88 11.863ZM20.8938 11.863C20.8938 16.7496 16.8697 20.7632 11.9608 20.7716C7.00083 20.7857 2.94837 16.7609 2.95688 11.8376C2.96539 6.9594 7.00934 2.95713 11.9239 2.95994C16.8612 2.96276 20.8938 6.96504 20.8938 11.863Z" fill="#36A439"/>
<circle cx="12" cy="12" r="9" fill="white"/>
<g clip-path="url(#clip1_229_4529)">
<path d="M8.63086 9.16113H10.505V10.1486H8.63086V9.16113Z" fill="#36A439"/>
<path d="M12.1291 7.71648C12.1127 7.62009 12.049 7.53681 11.9574 7.49685C10.4387 6.83439 8.69661 6.83437 7.17787 7.49685C7.07103 7.54345 7.00195 7.64895 7.00195 7.76551V16.7069C7.00195 16.8688 7.13319 17 7.29506 17H11.8403C11.9856 17 12.1058 16.8942 12.129 16.7554C12.1264 16.7396 12.1264 7.73245 12.1291 7.71648ZM11.0909 8.86799V10.4417C11.0909 10.6035 10.9597 10.7348 10.7978 10.7348H8.33746C8.17558 10.7348 8.04435 10.6035 8.04435 10.4417V8.86799C8.04435 8.70612 8.17558 8.57489 8.33746 8.57489H10.7978C10.9597 8.57489 11.0909 8.70612 11.0909 8.86799ZM8.98037 13.816C8.87654 13.816 8.78044 13.761 8.72776 13.6715C8.67507 13.582 8.67371 13.4713 8.72414 13.3805L9.37526 12.2085C9.45385 12.067 9.63232 12.016 9.77381 12.0946C9.91532 12.1732 9.96632 12.3516 9.88769 12.4932L9.47848 13.2297H10.1549C10.2597 13.2297 10.3565 13.2857 10.4088 13.3764C10.4612 13.4671 10.4611 13.5789 10.4086 13.6696L9.694 14.905C9.63968 14.9989 9.54122 15.0514 9.44002 15.0514C9.39019 15.0514 9.33974 15.0387 9.29353 15.0119C9.1534 14.9309 9.10553 14.7516 9.18656 14.6115L9.64676 13.8159H8.98037V13.816Z" fill="#36A439"/>
<path d="M16.7049 8.4623H16.6326V8.01527C16.6326 7.8534 16.5014 7.72217 16.3395 7.72217C16.1776 7.72217 16.0464 7.8534 16.0464 8.01527V8.4623H15.5162V8.01527C15.5162 7.8534 15.385 7.72217 15.2231 7.72217C15.0612 7.72217 14.93 7.8534 14.93 8.01527V8.4623H14.8475C14.6856 8.4623 14.5544 8.59353 14.5544 8.7554V9.5402C14.5544 10.1125 14.9506 10.5938 15.4831 10.7249V14.221C15.4831 14.6257 15.1528 14.955 14.7469 14.955C14.3409 14.955 14.0107 14.6257 14.0107 14.221V12.5388C14.0107 11.8185 13.4297 11.2314 12.7109 11.2192V11.8054C13.1064 11.8175 13.4245 12.1417 13.4245 12.5388V14.221C13.4245 14.949 14.0177 15.5412 14.7469 15.5412C15.4761 15.5412 16.0693 14.949 16.0693 14.221V10.7249C16.6018 10.5938 16.998 10.1125 16.998 9.5402V8.7554C16.998 8.59353 16.8668 8.4623 16.7049 8.4623Z" fill="#36A439"/>
</g>
</g>
<defs>
<clipPath id="clip0_229_4529">
<rect width="24" height="29.7143" fill="white" transform="matrix(-1 0 0 1 24 0)"/>
</clipPath>
<clipPath id="clip1_229_4529">
<rect width="10" height="10" fill="white" transform="translate(7 7)"/>
</clipPath>
</defs>
</svg>
