<svg width="61" height="61" viewBox="0 0 61 61" fill="none" xmlns="http://www.w3.org/2000/svg">
<path d="M18.0022 31.9633C20.3862 31.9633 22.3188 30.0307 22.3188 27.6467C22.3188 25.2627 20.3862 23.3301 18.0022 23.3301C15.6182 23.3301 13.6855 25.2627 13.6855 27.6467C13.6855 30.0307 15.6182 31.9633 18.0022 31.9633Z" fill="black"/>
<path d="M30.5022 31.9633C32.8862 31.9633 34.8188 30.0307 34.8188 27.6467C34.8188 25.2627 32.8862 23.3301 30.5022 23.3301C28.1182 23.3301 26.1855 25.2627 26.1855 27.6467C26.1855 30.0307 28.1182 31.9633 30.5022 31.9633Z" fill="black"/>
<path d="M43.0001 23.3298C40.6202 23.3298 38.6836 25.2665 38.6836 27.6466C38.6836 30.0267 40.6202 31.9634 43.0001 31.9634C45.3805 31.9634 47.3171 30.0267 47.3171 27.6466C47.3171 25.2665 45.3805 23.3298 43.0001 23.3298Z" fill="black"/>
<path d="M23.6589 34.2192C21.2784 34.2192 19.3418 36.1559 19.3418 38.536C19.3418 40.9161 21.2784 42.8528 23.6589 42.8528C26.0387 42.8528 27.9753 40.9161 27.9753 38.536C27.9753 36.1559 26.0387 34.2192 23.6589 34.2192Z" fill="black"/>
<path d="M36.7507 34.0374C34.3702 34.0374 32.4336 35.974 32.4336 38.3541C32.4336 40.7342 34.3702 42.6709 36.7507 42.6709C39.1305 42.6709 41.0671 40.7342 41.0671 38.3541C41.0671 35.974 39.1305 34.0374 36.7507 34.0374Z" fill="black"/>
<path d="M24.252 21.4785C25.5733 21.4785 26.6479 20.4035 26.6479 19.0823C26.6479 17.761 25.5733 16.686 24.252 16.686C22.9307 16.686 21.8555 17.761 21.8555 19.0823C21.8555 20.4035 22.9307 21.4785 24.252 21.4785Z" fill="black"/>
<path d="M36.75 21.4785C38.0713 21.4785 39.1459 20.4035 39.1459 19.0823C39.1459 17.761 38.0713 16.686 36.75 16.686C35.4288 16.686 34.3535 17.761 34.3535 19.0823C34.3535 20.4035 35.4288 21.4785 36.75 21.4785Z" fill="black"/>
<path d="M42.4493 11.219H18.5502C15.6212 11.219 12.9524 12.6686 11.4113 15.0967C8.70566 19.3596 7.52855 24.2977 8.00928 29.3766C9.03985 40.2765 18.0677 49.0274 29.0078 49.7321C29.5148 49.7649 30.0187 49.7809 30.5209 49.7809C36.2867 49.7809 41.7195 47.6412 45.9538 43.6708C50.4936 39.4142 53.0975 33.4051 53.0975 27.1841C53.0975 22.9141 51.8983 18.7552 49.6299 15.1572C48.0757 12.6913 45.3908 11.219 42.4493 11.219ZM43.4506 41.0009C39.5935 44.6177 34.5532 46.4221 29.2431 46.0798C20.0782 45.4895 12.5164 38.1606 11.6526 29.032C11.2493 24.7692 12.2346 20.6287 14.5013 17.0584C15.3549 15.7142 16.9061 14.879 18.5502 14.879H42.4493C44.1268 14.879 45.6535 15.7127 46.5334 17.109C48.4331 20.1221 49.4375 23.606 49.4375 27.1841C49.4375 32.474 47.3114 37.3808 43.4506 41.0009Z" fill="black"/>
</svg>
