<svg width="61" height="61" viewBox="0 0 61 61" fill="none" xmlns="http://www.w3.org/2000/svg">
<path d="M17.712 9.53125C13.2048 9.53125 9.53125 13.2048 9.53125 17.712V44.6605C9.53125 49.1676 13.2048 52.8412 17.712 52.8412H44.6605C49.1676 52.8412 52.8412 49.1676 52.8412 44.6605V17.712C52.8412 13.2048 49.1676 9.53125 44.6605 9.53125H17.712ZM17.712 12.4186H44.6605C47.618 12.4186 49.9539 14.7545 49.9539 17.712V44.6605C49.9539 47.618 47.618 49.9539 44.6605 49.9539H17.712C14.7545 49.9539 12.4186 47.618 12.4186 44.6605V17.712C12.4186 14.7545 14.7545 12.4186 17.712 12.4186ZM31.1862 16.2684C22.9644 16.2684 16.2684 22.9644 16.2684 31.1862C16.2684 39.4081 22.9644 46.1041 31.1862 46.1041C39.4081 46.1041 46.1041 39.4081 46.1041 31.1862C46.1041 22.9644 39.4081 16.2684 31.1862 16.2684ZM29.7426 19.2459V23.0055C29.7399 23.1968 29.7752 23.3867 29.8466 23.5642C29.9179 23.7418 30.0238 23.9033 30.1581 24.0396C30.2925 24.1758 30.4525 24.284 30.629 24.3578C30.8055 24.4317 30.9949 24.4697 31.1862 24.4697C31.3776 24.4697 31.567 24.4317 31.7435 24.3578C31.92 24.284 32.08 24.1758 32.2144 24.0396C32.3487 23.9033 32.4546 23.7418 32.5259 23.5642C32.5973 23.3867 32.6326 23.1968 32.6299 23.0055V19.2459C38.6054 19.9555 43.2168 25.014 43.2168 31.1862C43.2168 37.3585 38.6054 42.417 32.6299 43.1266V39.367C32.6339 39.1737 32.5991 38.9815 32.5274 38.8018C32.4557 38.6222 32.3486 38.4588 32.2126 38.3213C32.0765 38.1839 31.9142 38.0752 31.7353 38.0016C31.5564 37.9281 31.3646 37.8912 31.1712 37.8933C30.9803 37.8952 30.7918 37.935 30.6164 38.0104C30.441 38.0857 30.2823 38.195 30.1494 38.3321C30.0166 38.4691 29.9122 38.6312 29.8424 38.8088C29.7725 38.9865 29.7386 39.1762 29.7426 39.367V43.1266C23.7671 42.417 19.1557 37.3585 19.1557 31.1862C19.1557 25.014 23.7671 19.9555 29.7426 19.2459ZM24.9304 27.3365C22.8213 27.3365 21.0806 29.0772 21.0806 31.1862C21.0806 33.2953 22.8213 35.036 24.9304 35.036C27.0394 35.036 28.7801 33.2953 28.7801 31.1862C28.7801 29.0772 27.0394 27.3365 24.9304 27.3365ZM37.4421 27.3365C35.3331 27.3365 33.5924 29.0772 33.5924 31.1862C33.5924 33.2953 35.3331 35.036 37.4421 35.036C39.5512 35.036 41.2919 33.2953 41.2919 31.1862C41.2919 29.0772 39.5512 27.3365 37.4421 27.3365ZM24.9304 30.2238C25.479 30.2238 25.8928 30.6376 25.8928 31.1862C25.8928 31.7349 25.479 32.1487 24.9304 32.1487C24.3817 32.1487 23.9679 31.7349 23.9679 31.1862C23.9679 30.6376 24.3817 30.2238 24.9304 30.2238ZM37.4421 30.2238C37.9908 30.2238 38.4046 30.6376 38.4046 31.1862C38.4046 31.7349 37.9908 32.1487 37.4421 32.1487C36.8935 32.1487 36.4797 31.7349 36.4797 31.1862C36.4797 30.6376 36.8935 30.2238 37.4421 30.2238Z" fill="black"/>
</svg>
