<svg width="24" height="92" viewBox="0 0 24 92" fill="none" xmlns="http://www.w3.org/2000/svg">
<path d="M12.0009 13.4299C13.724 13.4299 15.1209 12.0331 15.1209 10.3099C15.1209 8.58681 13.724 7.18994 12.0009 7.18994C10.2777 7.18994 8.88086 8.58681 8.88086 10.3099C8.88086 12.0331 10.2777 13.4299 12.0009 13.4299Z" stroke="black" stroke-width="1.5"/>
<path d="M3.61971 8.49C5.58971 -0.169998 18.4197 -0.159997 20.3797 8.5C21.5297 13.58 18.3697 17.88 15.5997 20.54C13.5897 22.48 10.4097 22.48 8.38971 20.54C5.62971 17.88 2.46971 13.57 3.61971 8.49Z" stroke="black" stroke-width="1.5"/>
<path d="M12 22.5V70" stroke="black" stroke-width="2" stroke-dasharray="6 6"/>
<path d="M12 87.5C16.1421 87.5 19.5 84.1421 19.5 80C19.5 75.8579 16.1421 72.5 12 72.5C7.85786 72.5 4.5 75.8579 4.5 80C4.5 84.1421 7.85786 87.5 12 87.5Z" stroke="black" stroke-width="1.5" stroke-linecap="round" stroke-linejoin="round"/>
<path d="M12 83C13.6569 83 15 81.6569 15 80C15 78.3431 13.6569 77 12 77C10.3431 77 9 78.3431 9 80C9 81.6569 10.3431 83 12 83Z" stroke="black" stroke-width="1.5" stroke-linecap="round" stroke-linejoin="round"/>
<path d="M12 72V70" stroke="black" stroke-width="1.5" stroke-linecap="round" stroke-linejoin="round"/>
<path d="M4 80H2" stroke="black" stroke-width="1.5" stroke-linecap="round" stroke-linejoin="round"/>
<path d="M12 88V90" stroke="black" stroke-width="1.5" stroke-linecap="round" stroke-linejoin="round"/>
<path d="M20 80H22" stroke="black" stroke-width="1.5" stroke-linecap="round" stroke-linejoin="round"/>
</svg>
