<svg width="24" height="24" viewBox="0 0 24 24" fill="none" xmlns="http://www.w3.org/2000/svg">
<path d="M9.47139 15.2799C9.28139 15.2799 9.09139 15.2099 8.94139 15.0599C8.12139 14.2399 7.67139 13.1499 7.67139 11.9999C7.67139 9.60995 9.61139 7.66995 12.0014 7.66995C13.1514 7.66995 14.2414 8.11995 15.0614 8.93995C15.2014 9.07995 15.2814 9.26995 15.2814 9.46995C15.2814 9.66995 15.2014 9.85995 15.0614 9.99995L10.0014 15.0599C9.85139 15.2099 9.66139 15.2799 9.47139 15.2799ZM12.0014 9.16995C10.4414 9.16995 9.17139 10.4399 9.17139 11.9999C9.17139 12.4999 9.30139 12.9799 9.54139 13.3999L13.4014 9.53995C12.9814 9.29995 12.5014 9.16995 12.0014 9.16995Z" fill="black"/>
<path d="M5.60131 18.5099C5.43131 18.5099 5.25131 18.4499 5.11131 18.3299C4.04131 17.4199 3.08131 16.2999 2.26131 14.9999C1.20131 13.3499 1.20131 10.6599 2.26131 8.99995C4.70131 5.17995 8.25131 2.97995 12.0013 2.97995C14.2013 2.97995 16.3713 3.73995 18.2713 5.16995C18.6013 5.41995 18.6713 5.88995 18.4213 6.21995C18.1713 6.54995 17.7013 6.61995 17.3713 6.36995C15.7313 5.12995 13.8713 4.47995 12.0013 4.47995C8.77131 4.47995 5.68131 6.41995 3.52131 9.80995C2.77131 10.9799 2.77131 13.0199 3.52131 14.1899C4.27131 15.3599 5.13131 16.3699 6.08131 17.1899C6.39131 17.4599 6.43131 17.9299 6.16131 18.2499C6.02131 18.4199 5.81131 18.5099 5.60131 18.5099Z" fill="black"/>
<path d="M12.0015 21.0199C10.6715 21.0199 9.37153 20.7499 8.12153 20.2199C7.74153 20.0599 7.56153 19.6199 7.72153 19.2399C7.88153 18.8599 8.32153 18.6799 8.70153 18.8399C9.76153 19.2899 10.8715 19.5199 11.9915 19.5199C15.2215 19.5199 18.3115 17.5799 20.4715 14.1899C21.2215 13.0199 21.2215 10.9799 20.4715 9.80994C20.1615 9.31994 19.8215 8.84994 19.4615 8.40994C19.2015 8.08994 19.2515 7.61994 19.5715 7.34994C19.8915 7.08994 20.3615 7.12994 20.6315 7.45994C21.0215 7.93994 21.4015 8.45994 21.7415 8.99994C22.8015 10.6499 22.8015 13.3399 21.7415 14.9999C19.3015 18.8199 15.7515 21.0199 12.0015 21.0199Z" fill="black"/>
<path d="M12.6915 16.2699C12.3415 16.2699 12.0215 16.0199 11.9515 15.6599C11.8715 15.2499 12.1415 14.8599 12.5515 14.7899C13.6515 14.5899 14.5715 13.6699 14.7715 12.5699C14.8515 12.1599 15.2415 11.8999 15.6515 11.9699C16.0615 12.0499 16.3315 12.4399 16.2515 12.8499C15.9315 14.5799 14.5515 15.9499 12.8315 16.2699C12.7815 16.2599 12.7415 16.2699 12.6915 16.2699Z" fill="black"/>
<path d="M2.00141 22.7499C1.81141 22.7499 1.62141 22.6799 1.47141 22.5299C1.18141 22.2399 1.18141 21.7599 1.47141 21.4699L8.94141 13.9999C9.23141 13.7099 9.71141 13.7099 10.0014 13.9999C10.2914 14.2899 10.2914 14.7699 10.0014 15.0599L2.53141 22.5299C2.38141 22.6799 2.19141 22.7499 2.00141 22.7499Z" fill="black"/>
<path d="M14.5312 10.2199C14.3412 10.2199 14.1512 10.1499 14.0012 9.99994C13.7112 9.70994 13.7112 9.22994 14.0012 8.93994L21.4712 1.46994C21.7612 1.17994 22.2412 1.17994 22.5312 1.46994C22.8212 1.75994 22.8212 2.23994 22.5312 2.52994L15.0612 9.99994C14.9112 10.1499 14.7212 10.2199 14.5312 10.2199Z" fill="black"/>
</svg>
