<svg width="32" height="32" viewBox="0 0 32 32" fill="none" xmlns="http://www.w3.org/2000/svg">
<g clip-path="url(#clip0_613_13713)">
<path d="M27.879 20.2189V18.1093L29.9886 18.1093C30.377 18.1093 30.6918 17.7945 30.6918 17.4061L30.6918 14.5934C30.6918 14.2054 30.3769 13.8903 29.9886 13.8903L27.879 13.8902L27.879 11.7807C27.879 10.6175 26.9326 9.67116 25.7695 9.67116L24.9466 9.67116C24.6593 8.85627 23.8802 8.26482 22.9568 8.26482L21.5504 8.26479C21.1624 8.26472 20.8472 8.57961 20.8472 8.96797L20.8472 13.8903L11.1527 13.8903L11.1527 8.96801C11.1527 8.57994 10.8378 8.26482 10.4496 8.26482H9.04325C8.12654 8.26479 7.34494 8.85276 7.05465 9.67119L6.23052 9.67119C5.0673 9.67119 4.12096 10.6175 4.12096 11.7807L4.12096 13.8903L2.01138 13.8903C1.62301 13.8903 1.3082 14.2051 1.3082 14.5935L1.30816 17.4062C1.30816 17.7943 1.62308 18.1094 2.01135 18.1094L4.12093 18.1094L4.12093 20.219C4.12096 21.3822 5.0673 22.3285 6.23045 22.3286L7.05336 22.3286C7.34063 23.1435 8.11975 23.7349 9.04318 23.7349L10.4496 23.735C10.8376 23.7349 11.1528 23.4201 11.1528 23.0318L11.1528 18.1095L20.8472 18.1095L20.8472 23.0318C20.8472 23.4198 21.1621 23.735 21.5504 23.735L22.9567 23.735C23.8734 23.735 24.6551 23.147 24.9453 22.3286L25.7695 22.3286C26.9327 22.3284 27.879 21.3821 27.879 20.2189ZM29.2854 15.2967L29.2854 16.7031L27.879 16.7031L27.879 15.2967L29.2854 15.2967ZM2.7146 16.703V15.2966H4.12096L4.12096 16.703L2.7146 16.703ZM6.23052 20.9221C5.84275 20.9222 5.52736 20.6066 5.52733 20.2189L5.52733 11.7807C5.5273 11.393 5.84278 11.0776 6.23052 11.0776L6.93367 11.0776L6.9337 20.9221L6.23052 20.9221ZM9.74637 22.3285L9.04322 22.3285C8.65448 22.3285 8.34003 22.014 8.34003 21.6253L8.34003 10.3744C8.34003 9.98574 8.65452 9.67126 9.04322 9.67122L9.74637 9.67122C9.74633 10.109 9.7464 22.108 9.74637 22.3285ZM11.1528 16.703V15.2967L20.8472 15.2966L20.8472 16.703L11.1528 16.703ZM22.9567 22.3285H22.2536L22.2536 14.5936L22.2536 14.5935L22.2536 14.5934L22.2535 9.67129L22.9567 9.67126C23.3453 9.67126 23.6599 9.98567 23.6599 10.3744L23.6599 21.6254C23.66 22.014 23.3454 22.3285 22.9567 22.3285ZM25.7695 20.9221L25.0663 20.9221L25.0663 11.0776L25.7695 11.0776C26.1572 11.0776 26.4726 11.393 26.4727 11.7808L26.4727 20.2189C26.4727 20.6067 26.1572 20.9222 25.7695 20.9221Z" fill="black"/>
</g>
<defs>
<clipPath id="clip0_613_13713">
<rect width="32" height="32" fill="white"/>
</clipPath>
</defs>
</svg>
