<svg width="32" height="32" viewBox="0 0 32 32" fill="none" xmlns="http://www.w3.org/2000/svg">
<path d="M17.4966 18.1321H15.2246V22.6761H17.4966V18.1321Z" fill="black"/>
<path d="M20.3368 13.5879C21.2779 13.5879 22.0408 12.825 22.0408 11.8839C22.0408 10.9428 21.2779 10.1799 20.3368 10.1799C19.3957 10.1799 18.6328 10.9428 18.6328 11.8839C18.6328 12.825 19.3957 13.5879 20.3368 13.5879Z" fill="black"/>
<path d="M12.3837 13.5879C13.3248 13.5879 14.0877 12.825 14.0877 11.8839C14.0877 10.9428 13.3248 10.1799 12.3837 10.1799C11.4426 10.1799 10.6797 10.9428 10.6797 11.8839C10.6797 12.825 11.4426 13.5879 12.3837 13.5879Z" fill="black"/>
<path d="M16.36 4.5C10.112 4.5 5 9.612 5 15.86C5 22.108 10.112 27.22 16.36 27.22C22.608 27.22 27.72 22.108 27.72 15.86C27.72 9.612 22.608 4.5 16.36 4.5ZM16.36 24.948C11.3616 24.948 7.272 20.8584 7.272 15.86C7.272 10.8616 11.3616 6.772 16.36 6.772C21.3584 6.772 25.448 10.8616 25.448 15.86C25.448 20.8584 21.3584 24.948 16.36 24.948Z" fill="black"/>
</svg>
