<svg width="40" height="40" viewBox="0 0 40 40" fill="none" xmlns="http://www.w3.org/2000/svg">
<g clip-path="url(#clip0_646_12334)">
<path d="M6.52148 8.64453H14.0182V12.5944H6.52148V8.64453Z" fill="#36A439"/>
<path d="M20.5163 2.86593C20.4509 2.48036 20.1962 2.14724 19.8298 1.9874C13.7548 -0.662427 6.78643 -0.662505 0.711499 1.9874C0.284113 2.17381 0.0078125 2.59581 0.0078125 3.06204V38.8276C0.0078125 39.4751 0.532744 40 1.18023 40H19.361C19.9422 40 20.4233 39.5767 20.516 39.0218C20.5055 38.9585 20.5055 2.92979 20.5163 2.86593ZM16.3638 7.47198V13.7667C16.3638 14.4142 15.8388 14.9391 15.1914 14.9391H5.34983C4.70234 14.9391 4.17741 14.4142 4.17741 13.7667V7.47198C4.17741 6.82449 4.70234 6.29956 5.34983 6.29956H15.1914C15.8389 6.29956 16.3638 6.82449 16.3638 7.47198ZM7.92149 27.2638C7.50614 27.2638 7.12174 27.044 6.91102 26.686C6.7003 26.3279 6.69483 25.8851 6.89656 25.522L9.50105 20.8339C9.81542 20.2678 10.5293 20.0638 11.0952 20.3784C11.6613 20.6928 11.8653 21.4066 11.5508 21.9726L9.9139 24.919H12.6197C13.0387 24.919 13.4258 25.1426 13.6352 25.5056C13.8446 25.8686 13.8444 26.3157 13.6345 26.6784L10.776 31.62C10.5587 31.9956 10.1649 32.2056 9.76008 32.2056C9.56077 32.2056 9.35896 32.1548 9.1741 32.0478C8.61361 31.7236 8.42211 31.0064 8.74625 30.4459L10.587 27.2638H7.92149V27.2638Z" fill="#36A439"/>
<path d="M38.8195 5.84919H38.5303V4.06109C38.5303 3.4136 38.0054 2.88867 37.3579 2.88867C36.7104 2.88867 36.1855 3.4136 36.1855 4.06109V5.84919H34.0648V4.06109C34.0648 3.4136 33.5399 2.88867 32.8924 2.88867C32.2449 2.88867 31.72 3.4136 31.72 4.06109V5.84919H31.3901C30.7426 5.84919 30.2176 6.37412 30.2176 7.02161V10.1608C30.2176 12.4501 31.8025 14.3753 33.9323 14.8994V28.8842C33.9323 30.503 32.6113 31.82 30.9875 31.82C29.3637 31.82 28.0427 30.503 28.0427 28.8842V22.1553C28.0427 19.2739 25.7187 16.9256 22.8438 16.8769V19.2217C24.4257 19.2698 25.6979 20.5667 25.6979 22.1553V28.8842C25.6979 31.7959 28.0708 34.1649 30.9875 34.1649C33.9043 34.1649 36.2772 31.7959 36.2772 28.8842V14.8994C38.4071 14.3753 39.9919 12.4501 39.9919 10.1608V7.02161C39.992 6.37412 39.4671 5.84919 38.8195 5.84919Z" fill="#36A439"/>
</g>
<defs>
<clipPath id="clip0_646_12334">
<rect width="40" height="40" fill="white"/>
</clipPath>
</defs>
</svg>
