<svg width="64" height="64" viewBox="0 0 64 64" fill="none" xmlns="http://www.w3.org/2000/svg">
<g clip-path="url(#clip0_646_12401)">
<path d="M32.0371 51.4482C38.1055 51.4482 43.0425 46.5112 43.0425 40.4424C43.0425 34.374 38.1055 29.437 32.0371 29.437C25.9683 29.437 21.0312 34.374 21.0312 40.4424C21.0312 46.5112 25.9683 51.4482 32.0371 51.4482ZM25.5537 38.7104C26.2773 37.9863 27.4507 37.9863 28.1748 38.7104L30.5938 41.1294L35.8994 35.8237C36.6235 35.1001 37.7969 35.1001 38.5205 35.8237C39.2441 36.5474 39.2441 37.7207 38.5205 38.4448L31.9043 45.061C31.5566 45.4087 31.0854 45.6035 30.5938 45.6035C30.1021 45.6035 29.6309 45.4087 29.2832 45.061L25.5537 41.3311C24.8301 40.6074 24.8301 39.4341 25.5537 38.7104Z" fill="#36A439"/>
<path d="M1.375 58.0063C1.375 61.311 4.06396 64 7.36865 64H56.7036C60.0083 64 62.6973 61.311 62.6973 58.0063V20.5913H1.375V58.0063ZM32.0366 25.7305C40.1489 25.7305 46.7485 32.3301 46.7485 40.4424C46.7485 48.5547 40.1489 55.1548 32.0366 55.1548C23.9243 55.1548 17.3242 48.5547 17.3242 40.4424C17.3242 32.3301 23.9243 25.7305 32.0366 25.7305Z" fill="#36A439"/>
<path d="M62.6963 16.8848V11.1753C62.6963 7.87012 60.0078 5.18164 56.7026 5.18164H53.3237V8.51025C53.3237 9.53467 52.4932 10.3633 51.4702 10.3633C50.4463 10.3633 49.6172 9.53467 49.6172 8.51025V5.18164H45.9746V8.51025C45.9746 9.53467 45.146 10.3633 44.1216 10.3633C43.0986 10.3633 42.2681 9.53467 42.2681 8.51025V5.18164H21.8042V8.51025C21.8042 9.53467 20.9741 10.3633 19.9512 10.3633C18.9268 10.3633 18.0977 9.53467 18.0977 8.51025V5.18164H14.4556V8.51025C14.4556 9.53467 13.625 10.3633 12.6021 10.3633C11.5791 10.3633 10.749 9.53467 10.749 8.51025V5.18164H7.36865C4.06348 5.18164 1.375 7.87012 1.375 11.1753V16.8848H62.6963Z" fill="#36A439"/>
<path d="M53.3237 1.85303C53.3237 0.830078 52.4932 0 51.4702 0C50.4463 0 49.6172 0.830078 49.6172 1.85303V5.18164H53.3237V1.85303Z" fill="#36A439"/>
<path d="M45.9761 1.85303C45.9761 0.830078 45.1475 0 44.123 0C43.1001 0 42.2695 0.830078 42.2695 1.85303V5.18164H45.9761V1.85303Z" fill="#36A439"/>
<path d="M21.8042 1.85303C21.8042 0.830078 20.9741 0 19.9512 0C18.9268 0 18.0977 0.830078 18.0977 1.85303V5.18164H21.8042V1.85303Z" fill="#36A439"/>
<path d="M14.4565 1.85303C14.4565 0.830078 13.626 0 12.603 0C11.5801 0 10.75 0.830078 10.75 1.85303V5.18164H14.4565V1.85303Z" fill="#36A439"/>
</g>
<defs>
<clipPath id="clip0_646_12401">
<rect width="64" height="64" fill="white"/>
</clipPath>
</defs>
</svg>
