<svg width="22" height="22" viewBox="0 0 22 22" fill="none" xmlns="http://www.w3.org/2000/svg">
<g clip-path="url(#clip0_650_12800)">
<path d="M21.312 9.34056L12.6597 0.688217C11.7424 -0.228994 10.2578 -0.229166 9.34033 0.688217L0.687989 9.34056C-0.229308 10.2578 -0.229351 11.7427 0.687989 12.66L9.34033 21.3123C10.2576 22.2295 11.7423 22.2297 12.6597 21.3123L21.312 12.66C22.2293 11.7427 22.2294 10.2579 21.312 9.34056ZM20.3398 11.6877L11.6875 20.34C11.3075 20.72 10.6926 20.72 10.3125 20.34L1.6602 11.6877C1.28029 11.3078 1.28024 10.6928 1.6602 10.3128L10.3125 1.66047C10.6925 1.28051 11.3074 1.28047 11.6875 1.66047L20.3398 10.3128C20.3398 10.3249 20.6246 10.5479 20.6246 11.0003C20.6246 11.26 20.5235 11.5041 20.3398 11.6877Z" fill="white"/>
<path d="M16.0424 8.86568C15.9885 8.78413 16.1546 8.96089 13.6261 6.3929C13.3597 6.12234 12.9244 6.11894 12.6539 6.38538C12.3833 6.65177 12.38 7.08703 12.6463 7.35755L13.8637 8.59387H7.21872C6.83902 8.59387 6.53125 8.90168 6.53125 9.28134V13.7499C6.53125 14.1295 6.83902 14.4373 7.21872 14.4373C7.59841 14.4373 7.90619 14.1295 7.90619 13.7499V9.96881H13.7896L12.5723 11.2051C12.1433 11.6409 12.4577 12.3749 13.0621 12.3749C13.2399 12.3749 13.4175 12.3065 13.552 12.1698L15.8081 9.87845C16.191 9.66005 16.2414 9.16687 16.0424 8.86568Z" fill="white"/>
</g>
<defs>
<clipPath id="clip0_650_12800">
<rect width="22" height="22" fill="white"/>
</clipPath>
</defs>
</svg>
