<svg width="7" height="12" viewBox="0 0 7 12" fill="none" xmlns="http://www.w3.org/2000/svg">
<path d="M6.99898 5.983C6.99898 5.69746 6.89937 5.46505 6.66696 5.24591L1.57377 0.265616C1.40112 0.0863252 1.18863 0 0.929656 0C0.418345 0 0 0.411705 0 0.923015C0 1.17535 0.106246 1.40776 0.292177 1.5937L4.80765 5.97636L0.292177 10.3723C0.106246 10.5516 0 10.784 0 11.043C0 11.5543 0.418345 11.966 0.929656 11.966C1.18199 11.966 1.40112 11.8797 1.57377 11.7004L6.66696 6.72008C6.89937 6.50095 6.99898 6.26189 6.99898 5.983Z" fill="#36A439"/>
</svg>
