<svg width="94" height="94" viewBox="0 0 94 94" fill="none" xmlns="http://www.w3.org/2000/svg">
<path fill-rule="evenodd" clip-rule="evenodd" d="M45.5001 46.9893L20.2884 55.9944L65.2342 25.597L62.5273 36.2481L75.6062 30.3996C69.7155 20.3859 58.9386 14.1631 47.1679 14.1631C28.9657 14.1631 14.214 28.8624 14.214 47C14.214 65.1374 28.9657 79.8366 47.1679 79.8366C59.7512 79.8366 71.2073 72.7141 76.757 61.4659L77.0181 60.9376L94 53.4594L93.3606 56.5413C88.8528 78.329 69.5236 94.0002 47.1679 94.0002C21.1197 94 0 72.9555 0 46.9998C0 21.0443 21.1197 0 47.1681 0C69.681 0 88.9516 16.0348 93.3634 37.4561L93.6273 38.7383L43.2115 60.9374L45.5001 46.9893Z" fill="#36A439"/>
</svg>
