<svg width="24" height="24" viewBox="0 0 24 24" fill="none" xmlns="http://www.w3.org/2000/svg">
<path d="M12.93 4.78906H7.35C3.25 4.78906 2 6.03906 2 10.1391V13.8591C2 17.9591 3.25 19.2091 7.35 19.2091H12.93C17.03 19.2091 18.28 17.9591 18.28 13.8591V10.1391C18.28 6.03906 17.03 4.78906 12.93 4.78906Z" fill="#36A439"/>
<path d="M20.4392 15.0105C20.2951 15.019 20.151 15.0275 19.9886 15.0298L20.0385 14.3305L20.1385 12.9305L20.1617 12.6055L20.1992 12.9305L20.3608 14.3305L20.4392 15.0105ZM20.4392 15.0105C21.1339 14.9303 21.5192 14.6678 21.7329 14.3305C21.9992 13.9103 21.9992 13.3743 21.9992 12.9305V11.0705C21.9992 10.6297 21.9992 10.0977 21.7348 9.68047C21.5194 9.34056 21.1285 9.07679 20.4192 9.00047M20.4392 15.0105L20.3992 14.3305L20.3169 12.9305L20.2363 11.5612L20.2714 11.0705L20.3706 9.68047L20.4192 9.00047M20.4192 9.00047C20.3241 8.99367 20.2105 8.98688 20.0847 8.98322L20.1257 9.68047L20.2036 11.0047L20.3461 9.68047L20.4192 9.00047ZM19.1992 14.3305C19.1992 14.6769 19.4437 14.9601 19.7716 15.0192L19.8457 14.3305L19.8992 13.8334L19.9964 12.9305L20.0943 12.0208L19.9846 11.0705L19.8992 10.3305L19.8242 9.68047L19.7454 8.99704C19.4308 9.06613 19.1992 9.34342 19.1992 9.68047V11.0705V12.9305V14.3305Z" fill="#36A439" stroke="#36A439" stroke-width="21.3333"/>
</svg>
