<svg width="22" height="22" viewBox="0 0 22 22" fill="none" xmlns="http://www.w3.org/2000/svg">
<path d="M11.1463 10.6517C11.1188 10.6517 11.1005 10.6517 11.073 10.6517C11.0272 10.6425 10.963 10.6425 10.908 10.6517C8.24969 10.5692 6.24219 8.47918 6.24219 5.90334C6.24219 3.28168 8.37802 1.14584 10.9997 1.14584C13.6213 1.14584 15.7572 3.28168 15.7572 5.90334C15.748 8.47918 13.7313 10.5692 11.1738 10.6517C11.1647 10.6517 11.1555 10.6517 11.1463 10.6517ZM10.9997 2.52084C9.13885 2.52084 7.61719 4.04251 7.61719 5.90334C7.61719 7.73668 9.04719 9.21251 10.8713 9.27668C10.9172 9.26751 11.0455 9.26751 11.1647 9.27668C12.9613 9.19418 14.373 7.71834 14.3822 5.90334C14.3822 4.04251 12.8605 2.52084 10.9997 2.52084Z" fill="black"/>
<path d="M11.156 20.6709C9.35929 20.6709 7.55346 20.2125 6.18763 19.2959C4.91346 18.4525 4.2168 17.2975 4.2168 16.0417C4.2168 14.7859 4.91346 13.6217 6.18763 12.7692C8.93763 10.945 13.3926 10.945 16.1243 12.7692C17.3893 13.6125 18.0951 14.7675 18.0951 16.0234C18.0951 17.2792 17.3985 18.4434 16.1243 19.2959C14.7493 20.2125 12.9526 20.6709 11.156 20.6709ZM6.94846 13.9242C6.06846 14.5109 5.5918 15.2625 5.5918 16.0509C5.5918 16.83 6.07763 17.5817 6.94846 18.1592C9.23095 19.69 13.081 19.69 15.3635 18.1592C16.2435 17.5725 16.7201 16.8209 16.7201 16.0325C16.7201 15.2534 16.2343 14.5017 15.3635 13.9242C13.081 12.4025 9.23095 12.4025 6.94846 13.9242Z" fill="black"/>
</svg>
