<svg width="32" height="32" viewBox="0 0 32 32" fill="none" xmlns="http://www.w3.org/2000/svg">
<path d="M9.44414 16.7677C10.6948 16.7677 11.7086 15.7538 11.7086 14.5032C11.7086 13.2526 10.6948 12.2388 9.44414 12.2388C8.19352 12.2388 7.17969 13.2526 7.17969 14.5032C7.17969 15.7538 8.19352 16.7677 9.44414 16.7677Z" fill="black"/>
<path d="M16.0008 16.7677C17.2514 16.7677 18.2652 15.7538 18.2652 14.5032C18.2652 13.2526 17.2514 12.2388 16.0008 12.2388C14.7502 12.2388 13.7363 13.2526 13.7363 14.5032C13.7363 15.7538 14.7502 16.7677 16.0008 16.7677Z" fill="black"/>
<path d="M22.5573 12.2388C21.3089 12.2388 20.293 13.2547 20.293 14.5033C20.293 15.7519 21.3089 16.7678 22.5573 16.7678C23.8061 16.7678 24.822 15.7519 24.822 14.5033C24.822 13.2547 23.8061 12.2388 22.5573 12.2388Z" fill="black"/>
<path d="M12.7217 17.8555C11.473 17.8555 10.457 18.8714 10.457 20.12C10.457 21.3686 11.473 22.3845 12.7217 22.3845C13.9702 22.3845 14.9861 21.3686 14.9861 20.12C14.9861 18.8714 13.9702 17.8555 12.7217 17.8555Z" fill="black"/>
<path d="M19.2784 17.8555C18.0296 17.8555 17.0137 18.8714 17.0137 20.12C17.0137 21.3686 18.0296 22.3845 19.2784 22.3845C20.5268 22.3845 21.5427 21.3686 21.5427 20.12C21.5427 18.8714 20.5268 17.8555 19.2784 17.8555Z" fill="black"/>
<path d="M12.722 11.2675C13.4152 11.2675 13.9789 10.7036 13.9789 10.0104C13.9789 9.31732 13.4152 8.75342 12.722 8.75342C12.0289 8.75342 11.4648 9.31732 11.4648 10.0104C11.4648 10.7036 12.0289 11.2675 12.722 11.2675Z" fill="black"/>
<path d="M19.2787 11.2675C19.9718 11.2675 20.5355 10.7036 20.5355 10.0104C20.5355 9.31732 19.9718 8.75342 19.2787 8.75342C18.5855 8.75342 18.0215 9.31732 18.0215 10.0104C18.0215 10.7036 18.5855 11.2675 19.2787 11.2675Z" fill="black"/>
<path d="M22.2684 5.88525H9.73124C8.19468 5.88525 6.79468 6.64572 5.98624 7.91947C4.56687 10.1557 3.94937 12.7462 4.20156 15.4106C4.74218 21.1285 9.47812 25.7192 15.2172 26.0889C15.4831 26.106 15.7475 26.1145 16.0109 26.1145C19.0356 26.1145 21.8856 24.992 24.1069 22.9092C26.4884 20.6762 27.8544 17.5238 27.8544 14.2604C27.8544 12.0204 27.2253 9.83869 26.0353 7.95119C25.22 6.6576 23.8116 5.88525 22.2684 5.88525ZM22.7937 21.5085C20.7703 23.4059 18.1262 24.3524 15.3406 24.1729C10.5328 23.8632 6.56593 20.0185 6.11281 15.2298C5.90124 12.9935 6.41812 10.8215 7.60718 8.94854C8.05499 8.24338 8.86874 7.80525 9.73124 7.80525H22.2684C23.1484 7.80525 23.9494 8.2426 24.4109 8.9751C25.4075 10.5557 25.9344 12.3834 25.9344 14.2604C25.9344 17.0354 24.8191 19.6095 22.7937 21.5085Z" fill="black"/>
</svg>
