<svg width="32" height="32" viewBox="0 0 32 32" fill="none" xmlns="http://www.w3.org/2000/svg">
<path d="M18.0534 10.1236C18.0995 10.1556 18.1536 10.172 18.2083 10.172C18.2402 10.172 18.2724 10.1664 18.3031 10.1549L19.4027 9.74498C19.509 9.70537 19.5794 9.6039 19.5794 9.49053V7.55205C19.5794 7.46071 19.5335 7.37558 19.4573 7.3253C19.381 7.27506 19.2846 7.26642 19.2008 7.30249L18.1009 7.7744C18.0011 7.81722 17.9364 7.91539 17.9364 8.02401L17.9367 9.90058C17.9367 9.98956 17.9803 10.0728 18.0534 10.1236ZM19.0363 7.96404V9.30198L18.4798 9.50949L18.4795 8.20292L19.0363 7.96404ZM19.4661 10.4589C19.395 10.408 19.3037 10.3942 19.2207 10.4225L18.1211 10.7953C18.0108 10.8327 17.9367 10.9361 17.9367 11.0525V13.0562C17.9367 13.1412 17.9765 13.2212 18.0442 13.2725C18.092 13.3088 18.1497 13.3277 18.2083 13.3277C18.2328 13.3277 18.2575 13.3244 18.2816 13.3176L19.3812 13.0092C19.4984 12.9763 19.5794 12.8694 19.5794 12.7477V10.6796C19.5794 10.592 19.5372 10.5099 19.4661 10.4589ZM19.0363 12.5418L18.4798 12.6979V11.2471L19.0363 11.0584V12.5418ZM19.4846 16.9895C19.4245 16.9378 19.3449 16.9153 19.2664 16.9272L18.1668 17.0971C18.0344 17.1176 17.9367 17.2315 17.9367 17.3655V19.3691C17.9367 19.4456 17.969 19.5187 18.0256 19.5701C18.0758 19.6157 18.1411 19.6407 18.2083 19.6407C18.2169 19.6407 18.2256 19.6403 18.2342 19.6395L19.3338 19.5341C19.4731 19.5207 19.5794 19.4037 19.5794 19.2637V17.1956C19.5794 17.1164 19.5448 17.0411 19.4846 16.9895ZM19.0363 19.017L18.4798 19.0703V17.5983L19.0363 17.5124V19.017V19.017ZM19.4753 13.7246C19.4096 13.6731 19.3239 13.6548 19.2428 13.6748L18.1432 13.9461C18.0219 13.976 17.9367 14.0848 17.9367 14.2097V16.2118C17.9367 16.2926 17.9727 16.3692 18.0349 16.4208C18.084 16.4615 18.1454 16.4833 18.2083 16.4833C18.225 16.4833 18.2418 16.4818 18.2585 16.4786L19.3581 16.2717C19.4864 16.2475 19.5794 16.1354 19.5794 16.0049V13.9384C19.5794 13.8549 19.541 13.7761 19.4753 13.7246ZM19.0363 15.7797L18.4798 15.8844V14.4224L19.0363 14.2851V15.7796V15.7797ZM16.0706 16.7921C16.1198 16.8328 16.1812 16.8547 16.244 16.8547C16.2607 16.8547 16.2775 16.8531 16.2941 16.8499L17.2703 16.6666C17.3987 16.6425 17.4917 16.5303 17.4917 16.3997V14.4524C17.4917 14.3689 17.4533 14.2901 17.3876 14.2386C17.322 14.1871 17.2362 14.1687 17.1552 14.1887L16.179 14.4293C16.0577 14.4592 15.9725 14.568 15.9725 14.693V16.5831C15.9725 16.6638 16.0085 16.7405 16.0706 16.7921ZM16.5156 14.9057L16.9486 14.799V16.1745L16.5156 16.2558V14.9057ZM16.244 19.8276C16.2526 19.8276 16.2613 19.8272 16.2699 19.8264L17.2458 19.7329C17.3851 19.7196 17.4915 19.6025 17.4915 19.4626V17.52C17.4915 17.4407 17.4568 17.3654 17.3967 17.3138C17.3365 17.2623 17.257 17.2395 17.1785 17.2516L16.2027 17.4021C16.0702 17.4225 15.9725 17.5364 15.9725 17.6704V19.556C15.9725 19.6325 16.0048 19.7055 16.0614 19.757C16.1116 19.8026 16.1768 19.8276 16.244 19.8276ZM16.5156 17.9033L16.9483 17.8365V19.2158L16.5156 19.2572V17.9033ZM16.0799 13.825C16.1277 13.8613 16.1854 13.8802 16.244 13.8802C16.2685 13.8802 16.2932 13.8769 16.3173 13.8701L17.2934 13.5967C17.4107 13.5638 17.4917 13.457 17.4917 13.3352V11.388C17.4917 11.3004 17.4495 11.2183 17.3784 11.1673C17.3073 11.1163 17.216 11.1026 17.1331 11.1308L16.1569 11.4614C16.0467 11.4987 15.9725 11.6021 15.9725 11.7186V13.6087C15.9725 13.6937 16.0123 13.7737 16.0799 13.8251V13.825ZM16.5156 11.9133L16.9486 11.7666V13.1293L16.5156 13.2506V11.9133ZM16.0889 10.8541C16.1351 10.8863 16.1893 10.9028 16.2441 10.9028C16.2758 10.9028 16.3078 10.8972 16.3384 10.8859L17.3146 10.5239C17.4211 10.4844 17.4917 10.3829 17.4917 10.2693L17.492 8.44695C17.492 8.35566 17.4462 8.27049 17.37 8.2202C17.2938 8.16997 17.1975 8.16137 17.1135 8.1973L16.137 8.61586C16.0372 8.65863 15.9725 8.75679 15.9725 8.86546V10.6312C15.9725 10.7201 16.016 10.8034 16.0889 10.8541ZM16.5156 9.04455L16.9488 8.85881L16.9487 10.0803L16.5156 10.2409V9.04455ZM8.1416 15.5274C8.18804 15.5603 8.24294 15.5773 8.29838 15.5773C8.32884 15.5773 8.35948 15.5721 8.3889 15.5617L9.18342 15.2807C9.2919 15.2423 9.36445 15.1398 9.36445 15.0248L9.36468 13.5431C9.36468 13.452 9.31915 13.3671 9.24329 13.3168C9.16748 13.2664 9.07149 13.2574 8.98772 13.2928L8.19297 13.6275C8.09227 13.6699 8.02682 13.7685 8.02682 13.8777V15.3057C8.02682 15.3939 8.06959 15.4765 8.1416 15.5274ZM8.56993 14.058L8.82153 13.952L8.82139 14.8327L8.56993 14.9216V14.058ZM9.74816 14.9578C9.79455 14.9905 9.84936 15.0075 9.90471 15.0075C9.93535 15.0075 9.96612 15.0023 9.99577 14.9917L10.9108 14.666C11.0191 14.6275 11.0913 14.5251 11.0913 14.4102V12.8139C11.0913 12.7228 11.0456 12.6378 10.9697 12.5875C10.8937 12.5372 10.7976 12.5284 10.7138 12.5639L9.79876 12.9516C9.69833 12.9941 9.63315 13.0926 9.63315 13.2016V14.7359C9.63315 14.8242 9.67606 14.9069 9.74816 14.9578ZM10.1763 13.3814L10.5482 13.2238V14.2186L10.1763 14.351V13.3814ZM10.9913 17.8606C10.928 17.809 10.8447 17.7887 10.7649 17.8052L9.85012 17.994C9.72399 18.02 9.63347 18.131 9.63347 18.2599V19.8973C9.63347 19.9757 9.66741 20.0504 9.72661 20.102C9.7764 20.1453 9.83985 20.1688 9.90502 20.1688C9.91733 20.1688 9.92973 20.168 9.94209 20.1662L10.8568 20.0402C10.9912 20.0217 11.0913 19.9069 11.0913 19.7712V18.0712C11.0913 17.9895 11.0546 17.9122 10.9913 17.8607V17.8606ZM10.5482 19.5345L10.1766 19.5857V18.4811L10.5482 18.4045V19.5346V19.5345ZM8.33522 20.3875L9.12947 20.2787C9.26393 20.2603 9.36418 20.1454 9.36418 20.0097V18.4265C9.36418 18.3449 9.32748 18.2676 9.26425 18.2161C9.20102 18.1644 9.11774 18.1439 9.038 18.1605L8.24375 18.3236C8.11748 18.3496 8.02682 18.4607 8.02682 18.5896V20.1185C8.02682 20.1969 8.06077 20.2715 8.11988 20.3231C8.16966 20.3665 8.23316 20.39 8.29838 20.39C8.31064 20.39 8.32295 20.3891 8.33522 20.3875ZM8.56993 18.811L8.82107 18.7594V19.7728L8.56993 19.8072V18.811ZM8.13087 17.9267C8.17912 17.9646 8.23827 17.9846 8.29838 17.9846C8.32006 17.9846 8.34178 17.982 8.36323 17.9767L9.15748 17.7814C9.27891 17.7515 9.36418 17.6427 9.36418 17.5177V15.9345C9.36418 15.848 9.32299 15.7667 9.2533 15.7156C9.1836 15.6644 9.09367 15.6494 9.01116 15.6754L8.21691 15.9252C8.10376 15.9607 8.02682 16.0657 8.02682 16.1842V17.7131C8.02682 17.7965 8.0652 17.8753 8.13087 17.9268V17.9267ZM8.56993 16.3835L8.82107 16.3045V17.3048L8.56993 17.3666V16.3835ZM10.9802 15.1701C10.9104 15.1189 10.8205 15.1041 10.7379 15.1302L9.8232 15.4193C9.71027 15.455 9.63352 15.5598 9.63352 15.6782V17.3166C9.63352 17.4 9.6719 17.4789 9.73761 17.5303C9.78586 17.5682 9.84496 17.5881 9.90507 17.5881C9.92675 17.5881 9.94856 17.5855 9.97006 17.5802L10.8848 17.3549C11.0061 17.325 11.0914 17.2162 11.0914 17.0912V15.3892C11.0914 15.3026 11.0501 15.2213 10.9803 15.1701L10.9802 15.1701ZM10.5482 16.8784L10.1766 16.97V15.8771L10.5482 15.7597V16.8784V16.8784ZM27.3983 26.0449H25.7917V7.47855C25.7917 7.36983 25.7268 7.27158 25.6268 7.22885L20.4641 5.02189C20.3959 4.9927 20.3188 4.9927 20.2506 5.02189L15.0878 7.22885C14.9879 7.27153 14.923 7.36979 14.923 7.47855V11.331L12.6326 10.3519C12.5644 10.3227 12.4872 10.3227 12.4191 10.3519L7.04299 12.65C6.94301 12.6927 6.87815 12.7909 6.87815 12.8997V26.0449H5.27155C5.12161 26.0449 5 26.1665 5 26.3165V27.4484C5 27.5984 5.12161 27.72 5.27155 27.72H27.3983C27.5482 27.72 27.6698 27.5984 27.6698 27.4484V26.3165C27.6698 26.1665 27.5482 26.0449 27.3983 26.0449ZM25.2486 26.0449H20.6289V5.68299L25.2486 7.65773V26.0449ZM20.0858 5.68299V26.0449H19.0571V21.7105L19.2004 21.6969C19.3497 21.6827 19.4593 21.5502 19.445 21.4009C19.4308 21.2516 19.2988 21.1421 19.149 21.1563L16.3514 21.4225C16.2021 21.4367 16.0926 21.5693 16.1069 21.7186C16.1202 21.8591 16.2385 21.9644 16.3769 21.9644C16.3854 21.9644 16.3942 21.964 16.4029 21.9632L16.4948 21.9545V26.045H15.4661V7.65777L20.0858 5.68299ZM18.514 21.7622V26.0449H17.038V21.9027L18.514 21.7622ZM14.923 26.0449H12.7973V11.013L14.923 11.9217V26.0449ZM7.42126 13.0789L12.2542 11.013V26.0449H11.1189V22.5704L11.2622 22.5568C11.4116 22.5426 11.5211 22.41 11.5068 22.2607C11.4927 22.1114 11.3599 22.0015 11.2108 22.0162L8.41325 22.2825C8.26394 22.2966 8.15441 22.4292 8.16867 22.5785C8.18202 22.719 8.30028 22.8243 8.43868 22.8243C8.44728 22.8243 8.45597 22.8239 8.4647 22.8231L8.55663 22.8144V26.045H7.42126V13.0789ZM10.5758 22.6222V26.0449H9.09973V22.7627L10.5758 22.6222ZM27.1267 27.1769H5.54311V26.588H27.1267V27.1769H27.1267ZM22.6671 24.9141V8.19522C22.6671 8.04528 22.7887 7.92367 22.9387 7.92367C23.0886 7.92367 23.2102 8.04528 23.2102 8.19522V24.9141C23.2102 25.064 23.0886 25.1856 22.9387 25.1856C22.7887 25.1856 22.6671 25.064 22.6671 24.9141ZM23.9579 24.9141V8.74697C23.9579 8.59703 24.0795 8.47542 24.2294 8.47542C24.3794 8.47542 24.501 8.59703 24.501 8.74697V24.9141C24.501 25.064 24.3794 25.1856 24.2294 25.1856C24.0795 25.1856 23.9579 25.064 23.9579 24.9141ZM21.3765 24.9141V7.64352C21.3765 7.49357 21.4981 7.37196 21.648 7.37196C21.798 7.37196 21.9196 7.49357 21.9196 7.64352V24.9141C21.9196 25.064 21.798 25.1856 21.648 25.1856C21.4981 25.1856 21.3765 25.064 21.3765 24.9141Z" fill="black"/>
</svg>
