<svg width="32" height="32" viewBox="0 0 32 32" fill="none" xmlns="http://www.w3.org/2000/svg">
<g clip-path="url(#clip0_0_2192)">
<path d="M27.879 20.2192V18.1096L29.9886 18.1096C30.377 18.1095 30.6918 17.7948 30.6918 17.4064L30.6918 14.5937C30.6918 14.2056 30.3769 13.8905 29.9886 13.8905L27.879 13.8905L27.879 11.7809C27.879 10.6177 26.9326 9.6714 25.7695 9.6714L24.9466 9.6714C24.6593 8.85652 23.8802 8.26507 22.9568 8.26507L21.5504 8.26503C21.1624 8.26497 20.8472 8.57985 20.8472 8.96822L20.8472 13.8905L11.1527 13.8906L11.1527 8.96825C11.1527 8.58018 10.8378 8.26507 10.4496 8.26507H9.04325C8.12654 8.26503 7.34494 8.853 7.05465 9.67143L6.23052 9.67143C5.0673 9.67143 4.12096 10.6178 4.12096 11.781L4.12096 13.8906L2.01138 13.8906C1.62301 13.8905 1.3082 14.2054 1.3082 14.5938L1.30816 17.4065C1.30816 17.7945 1.62308 18.1096 2.01135 18.1096L4.12093 18.1096L4.12093 20.2193C4.12096 21.3824 5.0673 22.3287 6.23045 22.3288L7.05336 22.3288C7.34063 23.1437 8.11975 23.7352 9.04318 23.7352L10.4496 23.7352C10.8376 23.7352 11.1528 23.4204 11.1528 23.032L11.1528 18.1097L20.8472 18.1097L20.8472 23.032C20.8472 23.4201 21.1621 23.7352 21.5504 23.7352L22.9567 23.7352C23.8734 23.7352 24.6551 23.1473 24.9453 22.3288L25.7695 22.3288C26.9327 22.3287 27.879 21.3824 27.879 20.2192ZM29.2854 15.2969L29.2854 16.7033L27.879 16.7033L27.879 15.2969L29.2854 15.2969ZM2.7146 16.7032V15.2969H4.12096L4.12096 16.7032L2.7146 16.7032ZM6.23052 20.9223C5.84275 20.9224 5.52736 20.6069 5.52733 20.2192L5.52733 11.781C5.5273 11.3933 5.84278 11.0778 6.23052 11.0778L6.93367 11.0778L6.9337 20.9223L6.23052 20.9223ZM9.74637 22.3288L9.04322 22.3287C8.65448 22.3287 8.34003 22.0143 8.34003 21.6255L8.34003 10.3747C8.34003 9.98599 8.65452 9.6715 9.04322 9.67147L9.74637 9.67147C9.74633 10.1092 9.7464 22.1083 9.74637 22.3288ZM11.1528 16.7033V15.2969L20.8472 15.2969L20.8472 16.7032L11.1528 16.7033ZM22.9567 22.3287H22.2536L22.2536 14.5938L22.2536 14.5938L22.2536 14.5937L22.2535 9.67153L22.9567 9.6715C23.3453 9.6715 23.6599 9.98592 23.6599 10.3747L23.6599 21.6256C23.66 22.0142 23.3454 22.3287 22.9567 22.3287ZM25.7695 20.9223L25.0663 20.9223L25.0663 11.0778L25.7695 11.0778C26.1572 11.0779 26.4726 11.3932 26.4727 11.781L26.4727 20.2192C26.4727 20.6069 26.1572 20.9224 25.7695 20.9223Z" fill="black"/>
</g>
<defs>
<clipPath id="clip0_0_2192">
<rect width="32" height="32" fill="white"/>
</clipPath>
</defs>
</svg>
