<svg width="32" height="32" viewBox="0 0 32 32" fill="none" xmlns="http://www.w3.org/2000/svg">
<path d="M25.8667 26.9972L25.1549 5.64344C25.143 5.28467 24.8486 5 24.4897 5H7.37861C7.01962 5 6.72532 5.28467 6.71334 5.64344L6.00037 27.0322C5.99438 27.2124 6.06178 27.3875 6.18719 27.5171C6.31263 27.6468 6.4853 27.72 6.66564 27.72H25.2026C25.2029 27.72 25.2033 27.72 25.2035 27.72C25.5711 27.72 25.8691 27.422 25.8691 27.0544C25.8691 27.0351 25.8683 27.016 25.8667 26.9972ZM7.35385 26.3888L8.02245 6.33125H23.8459L24.5144 26.3888H7.35385Z" fill="black"/>
<path d="M20.2114 9.27783C19.8438 9.27783 19.5457 9.57585 19.5457 9.94346C19.5457 11.9352 17.9253 13.5556 15.9336 13.5556C13.9419 13.5556 12.3215 11.9352 12.3215 9.94346C12.3215 9.57585 12.0235 9.27783 11.6559 9.27783C11.2883 9.27783 10.9902 9.57585 10.9902 9.94346C10.9902 12.6692 13.2078 14.8868 15.9336 14.8868C18.6594 14.8868 20.877 12.6692 20.877 9.94346C20.877 9.57585 20.579 9.27783 20.2114 9.27783Z" fill="black"/>
</svg>
