<svg width="32" height="32" viewBox="0 0 32 32" fill="none" xmlns="http://www.w3.org/2000/svg">
<path d="M21.9907 11.0911C21.9907 10.4885 21.5022 10 20.8996 10C20.2971 10 19.8086 10.4885 19.8086 11.0911C19.8086 11.6936 20.2971 12.1821 20.8996 12.1821C21.5019 12.1814 21.99 11.6933 21.9907 11.0911ZM20.8996 11.7457C20.5381 11.7457 20.245 11.4526 20.245 11.0911C20.245 10.7295 20.5381 10.4364 20.8996 10.4364C21.2612 10.4364 21.5543 10.7295 21.5543 11.0911C21.5543 11.4526 21.2612 11.7457 20.8996 11.7457Z" fill="black"/>
<path d="M21.9914 12.1821H19.8093C19.0865 12.1829 18.5007 12.7686 18.5 13.4914V16.219C18.4997 16.4809 18.634 16.7246 18.8556 16.8642C19.0772 17.0037 19.355 17.0196 19.5911 16.9062V21.2379C19.5917 21.5479 19.7797 21.8268 20.0669 21.9436C20.354 22.0605 20.6833 21.9922 20.9003 21.7707C21.1173 21.9922 21.4466 22.0605 21.7338 21.9436C22.0209 21.8268 22.2089 21.5479 22.2096 21.2379V16.9062C22.4456 17.0196 22.7234 17.0037 22.945 16.8642C23.1666 16.7246 23.301 16.4809 23.3006 16.219V13.4914C23.2999 12.7686 22.7142 12.1829 21.9914 12.1821ZM20.3548 21.5652C20.174 21.5652 20.0275 21.4186 20.0275 21.2379V17.4192H20.6821V21.2379C20.6821 21.4186 20.5356 21.5652 20.3548 21.5652ZM21.7732 21.2379C21.7732 21.4186 21.6266 21.5652 21.4458 21.5652C21.2651 21.5652 21.1185 21.4186 21.1185 21.2379V17.4192H21.7732V21.2379ZM22.8642 16.219C22.8642 16.3998 22.7177 16.5463 22.5369 16.5463C22.3561 16.5463 22.2096 16.3998 22.2096 16.219V13.4914C22.2096 13.3709 22.1119 13.2732 21.9914 13.2732C21.8709 13.2732 21.7732 13.3709 21.7732 13.4914V16.9828H20.0275V13.4914C20.0275 13.3709 19.9298 13.2732 19.8093 13.2732C19.6888 13.2732 19.5911 13.3709 19.5911 13.4914V16.219C19.5911 16.3998 19.4445 16.5463 19.2637 16.5463C19.083 16.5463 18.9364 16.3998 18.9364 16.219V13.4914C18.9364 13.0093 19.3272 12.6186 19.8093 12.6186H21.9914C22.4734 12.6186 22.8642 13.0093 22.8642 13.4914V16.219Z" fill="black"/>
<circle cx="16.0001" cy="16.0001" r="11.2501" stroke="black" stroke-width="1.5"/>
<rect x="15.5" y="5" width="1" height="22" fill="black"/>
<path d="M12.543 11.0908C12.543 10.4884 12.0546 10 11.4522 10C10.8497 10 10.3613 10.4884 10.3613 11.0908C10.3613 11.6933 10.8497 12.1817 11.4522 12.1817C12.0543 12.181 12.5423 11.693 12.543 11.0908ZM11.4522 11.7454C11.0907 11.7454 10.7977 11.4523 10.7977 11.0908C10.7977 10.7294 11.0907 10.4363 11.4522 10.4363C11.8137 10.4363 12.1067 10.7294 12.1067 11.0908C12.1067 11.4523 11.8137 11.7454 11.4522 11.7454Z" fill="black"/>
<path d="M13.502 12.8126C13.3931 12.44 13.0522 12.1833 12.664 12.1816H10.5718C9.98863 12.1842 9.47652 12.5697 9.31271 13.1294L8.5297 15.8545C8.41388 16.259 8.64705 16.6809 9.05112 16.7981C9.16447 16.8313 9.28402 16.8376 9.40019 16.8162L9.14057 17.7354C9.10333 17.8671 9.13009 18.0087 9.21284 18.1178C9.29559 18.2269 9.42473 18.2908 9.56164 18.2904H10.1442V21.2357C10.1435 21.5463 10.3313 21.8263 10.6189 21.9435C10.9066 22.0607 11.2366 21.9918 11.4532 21.7691C11.4554 21.7713 11.4567 21.7739 11.4588 21.7761C11.6773 21.9944 12.0058 22.0596 12.2911 21.9413C12.5764 21.823 12.7623 21.5445 12.7622 21.2357V18.2904H13.3447C13.4816 18.2908 13.6107 18.2269 13.6934 18.1179C13.7761 18.0088 13.8029 17.8673 13.7658 17.7356L13.504 16.8164C13.6201 16.8381 13.7397 16.8319 13.853 16.7986C14.0477 16.7427 14.2123 16.6119 14.3105 16.4348C14.4086 16.2576 14.4325 16.0488 14.3767 15.8541L13.502 12.8126ZM10.9077 21.5629C10.8208 21.5634 10.7373 21.5291 10.6758 21.4676C10.6144 21.4061 10.58 21.3226 10.5805 21.2357L10.5805 18.2904H11.235V21.2357C11.235 21.4164 11.0885 21.5629 10.9077 21.5629ZM12.3259 21.2357C12.3259 21.4164 12.1793 21.5629 11.9986 21.5629C11.8179 21.5629 11.6713 21.4164 11.6713 21.2357V18.2904H12.3259V21.2357ZM13.7328 16.3794C13.5591 16.4286 13.3782 16.3286 13.3275 16.1554L12.544 13.4283C12.5098 13.3139 12.3899 13.2483 12.2751 13.2811C12.1603 13.3139 12.0932 13.4328 12.1245 13.548L13.3447 17.8541H10.3623H10.3599H9.5599L10.7816 13.5474C10.8144 13.4316 10.7473 13.3112 10.6315 13.2782C10.6121 13.2725 10.5919 13.2696 10.5715 13.2697C10.4743 13.2698 10.3889 13.3342 10.3621 13.4276L9.57931 16.1541C9.52979 16.3282 9.3485 16.4292 9.17439 16.3797C9.00028 16.3301 8.89928 16.1489 8.9488 15.9747L9.73181 13.2507C9.84105 12.8772 10.1827 12.6199 10.5718 12.618H12.664C12.858 12.6189 13.0283 12.7472 13.0827 12.9335L13.9575 15.9743C13.9816 16.0578 13.9714 16.1475 13.9292 16.2235C13.8871 16.2995 13.8164 16.3556 13.7328 16.3794Z" fill="black"/>
</svg>
