<svg width="47" height="64" viewBox="0 0 47 64" fill="none" xmlns="http://www.w3.org/2000/svg">
<path d="M23.1784 0C10.3977 0 0 10.3977 0 23.1783C0 39.0393 20.7424 62.3241 21.6255 63.3076C22.455 64.2315 23.9033 64.2299 24.7313 63.3076C25.6144 62.3241 46.3568 39.0393 46.3568 23.1783C46.3565 10.3977 35.9589 0 23.1784 0ZM23.1784 34.8399C16.7481 34.8399 11.5169 29.6085 11.5169 23.1783C11.5169 16.748 16.7482 11.5168 23.1784 11.5168C29.6085 11.5168 34.8397 16.7481 34.8397 23.1784C34.8397 29.6086 29.6085 34.8399 23.1784 34.8399Z" fill="#36A439"/>
</svg>
