<svg width="32" height="32" viewBox="0 0 32 32" fill="none" xmlns="http://www.w3.org/2000/svg">
<path d="M7.34339 15.2774C6.78658 15.8343 6.78658 16.7405 7.34339 17.3027C7.90021 17.8595 8.8064 17.8595 9.36867 17.3027C13.2227 13.4487 19.4951 13.4487 23.3491 17.3027C23.6275 17.5811 23.9933 17.7231 24.359 17.7231C24.7248 17.7231 25.0905 17.5811 25.3689 17.3027C25.9257 16.7459 25.9257 15.8397 25.3689 15.2774C20.4012 10.3043 12.3111 10.3043 7.34339 15.2774Z" fill="black"/>
<path d="M11.2086 19.1425C10.6518 19.6993 10.6518 20.6055 11.2086 21.1678C11.7654 21.7246 12.6716 21.7246 13.2339 21.1678C14.9535 19.4427 17.7594 19.4427 19.479 21.1678C19.7574 21.4462 20.1231 21.5881 20.4889 21.5881C20.8546 21.5881 21.2204 21.4462 21.4988 21.1678C22.0556 20.6109 22.0556 19.7048 21.4988 19.1479C18.6656 16.3038 14.0473 16.3038 11.2086 19.1425Z" fill="black"/>
<path d="M16.3564 26.19C17.4086 26.19 18.2615 25.337 18.2615 24.2848C18.2615 23.2326 17.4086 22.3796 16.3564 22.3796C15.3041 22.3796 14.4512 23.2326 14.4512 24.2848C14.4512 25.337 15.3041 26.19 16.3564 26.19Z" fill="black"/>
<path d="M29.2931 11.3471C22.1583 4.21765 10.5525 4.21765 3.41761 11.3471C2.8608 11.9039 2.8608 12.8101 3.41761 13.3723C3.97443 13.9292 4.88061 13.9292 5.44289 13.3723C11.4587 7.35109 21.2521 7.35109 27.2733 13.3723C27.5517 13.6507 27.9175 13.7927 28.2832 13.7927C28.649 13.7927 29.0147 13.6507 29.2931 13.3723C29.8499 12.8155 29.8499 11.9093 29.2931 11.3471Z" fill="black"/>
</svg>
