<svg width="54" height="64" viewBox="0 0 54 64" fill="none" xmlns="http://www.w3.org/2000/svg">
<path d="M40.0937 29.6902H3.83465C1.71676 29.6902 0 31.4071 0 33.5249V50.1397H26.0557C26.9118 42.1924 33.6591 35.9838 41.8302 35.9838C42.5415 35.9838 43.2417 36.0317 43.9285 36.1228V33.5249C43.9285 31.4069 42.2116 29.6902 40.0937 29.6902Z" fill="#36A439"/>
<path d="M26.0951 53.8876H0V60.1655C0 62.2833 1.71689 64.0002 3.83478 64.0002H31.6374C28.662 61.4999 26.6156 57.9295 26.0951 53.8876Z" fill="#36A439"/>
<path d="M11.8147 25.9419V18.1205C11.8147 12.5241 16.3677 7.97106 21.9643 7.97094C27.5607 7.97094 32.1139 12.524 32.1139 18.1205V25.9419H40.0848V18.1205C40.0848 8.11281 31.972 0 21.9643 0C11.9566 0 3.84378 8.11281 3.84378 18.1205V25.9419H11.8147Z" fill="#36A439"/>
<path d="M41.83 39.7322C35.1477 39.7322 29.7112 45.1687 29.7112 51.851C29.7112 58.5333 35.1476 63.9698 41.83 63.9698C48.5123 63.9698 53.9489 58.5334 53.9489 51.851C53.9489 45.1687 48.5123 39.7322 41.83 39.7322ZM46.4843 49.1954L42.3359 56.3807C42.0025 56.9571 41.3839 57.3177 40.7129 57.3177C40.0434 57.3177 39.4246 56.9605 39.0899 56.3807L37.1757 53.0652C36.6582 52.1688 36.9653 51.0226 37.8617 50.5052C38.7584 49.9877 39.9044 50.2948 40.4217 51.1912L40.7129 51.6956L41.83 49.7607L43.2383 47.3215C43.7556 46.4252 44.9018 46.1179 45.7983 46.6355C46.6947 47.1529 47.0018 48.2991 46.4843 49.1954Z" fill="#36A439"/>
</svg>
