<svg width="24" height="30" viewBox="0 0 24 30" fill="none" xmlns="http://www.w3.org/2000/svg">
<path d="M23.9092 11.8849C23.9036 6.18946 19.8621 1.33057 14.2126 0.220769C7.95332 -1.01015 1.71672 3.03188 0.30151 9.21465C-0.345123 12.0286 0.083129 14.7101 1.22324 17.3184C2.3038 19.7915 3.85231 21.9633 5.61921 23.9857C7.38043 25.9997 9.33167 27.8165 11.4474 29.4558C11.8927 29.8023 12.0146 29.8051 12.4542 29.4586C15.4293 27.132 18.1037 24.5124 20.3046 21.4393C21.768 19.3972 22.9762 17.2199 23.5462 14.7552C23.7618 13.8172 23.8525 12.8511 24 11.899C23.9688 11.8934 23.9404 11.8877 23.9092 11.8849ZM20.9228 11.8849C20.9228 16.772 16.8984 20.7859 11.9891 20.7943C7.02875 20.8084 2.97596 16.7833 2.98447 11.8596C2.99297 6.98097 7.03726 2.97837 11.9522 2.98118C16.8899 2.984 20.9228 6.9866 20.9228 11.8849Z" fill="black"/>
</svg>
