<svg width="32" height="32" viewBox="0 0 32 32" fill="none" xmlns="http://www.w3.org/2000/svg">
<path d="M11.5831 19.4121C8.58219 19.4121 6.14062 21.8537 6.14062 24.8546C6.14062 27.8555 8.58219 30.2971 11.5831 30.2971H20.4175C23.4184 30.2971 25.86 27.8555 25.86 24.8546C25.86 21.8537 23.4184 19.4121 20.4175 19.4121H11.5831ZM23.94 24.8546C23.94 26.797 22.3597 28.3771 20.4175 28.3771H11.5831C9.64094 28.3771 8.06063 26.797 8.06063 24.8546C8.06063 22.9123 9.64094 21.3321 11.5831 21.3321H20.4175C22.3597 21.3321 23.94 22.9123 23.94 24.8546Z" fill="black"/>
<path d="M11.9588 27.4914C13.415 27.4914 14.5954 26.311 14.5954 24.8548C14.5954 23.3987 13.415 22.2183 11.9588 22.2183C10.5027 22.2183 9.32227 23.3987 9.32227 24.8548C9.32227 26.311 10.5027 27.4914 11.9588 27.4914Z" fill="black"/>
<path d="M20.0428 27.4914C21.4989 27.4914 22.6794 26.311 22.6794 24.8548C22.6794 23.3987 21.4989 22.2183 20.0428 22.2183C18.5867 22.2183 17.4062 23.3987 17.4062 24.8548C17.4062 26.311 18.5867 27.4914 20.0428 27.4914Z" fill="black"/>
<path d="M10.5602 10.9225C11.6115 10.9225 12.4665 10.0675 12.4665 9.01645C12.4665 7.96535 11.6115 7.11035 10.5602 7.11035C9.5093 7.11035 8.6543 7.96535 8.6543 9.01645C8.6543 10.0675 9.5093 10.9225 10.5602 10.9225Z" fill="black"/>
<path d="M16.0016 10.9225C17.0529 10.9225 17.9079 10.0675 17.9079 9.01645C17.9079 7.96535 17.0529 7.11035 16.0016 7.11035C14.9507 7.11035 14.0957 7.96535 14.0957 9.01645C14.0957 10.0675 14.9507 10.9225 16.0016 10.9225Z" fill="black"/>
<path d="M21.4411 10.9225C22.4923 10.9225 23.3473 10.0675 23.3473 9.01645C23.3473 7.96535 22.4923 7.11035 21.4411 7.11035C20.3902 7.11035 19.5352 7.96535 19.5352 9.01645C19.5352 10.0675 20.3902 10.9225 21.4411 10.9225Z" fill="black"/>
<path d="M13.2809 11.771C12.23 11.771 11.375 12.626 11.375 13.6771C11.375 14.7282 12.23 15.5832 13.2809 15.5832C14.3322 15.5832 15.1872 14.7282 15.1872 13.6771C15.1872 12.626 14.3322 11.771 13.2809 11.771Z" fill="black"/>
<path d="M18.7204 11.771C17.6695 11.771 16.8145 12.626 16.8145 13.6771C16.8145 14.7282 17.6695 15.5832 18.7204 15.5832C19.7716 15.5832 20.6266 14.7282 20.6266 13.6771C20.6266 12.626 19.7716 11.771 18.7204 11.771Z" fill="black"/>
<path d="M13.2812 6.35873C13.8716 6.35873 14.3516 5.87873 14.3516 5.28857C14.3516 4.69842 13.8716 4.21826 13.2812 4.21826C12.6909 4.21826 12.2109 4.69842 12.2109 5.28857C12.2109 5.87873 12.6909 6.35873 13.2812 6.35873Z" fill="black"/>
<path d="M18.7207 6.35873C19.311 6.35873 19.791 5.87873 19.791 5.28857C19.791 4.69842 19.311 4.21826 18.7207 4.21826C18.1304 4.21826 17.6504 4.69842 17.6504 5.28857C17.6504 5.87873 18.1304 6.35873 18.7207 6.35873Z" fill="black"/>
<path d="M15.3406 18.7923C15.5647 18.8069 15.7878 18.814 16.0097 18.814C18.5613 18.8139 20.965 17.8672 22.8388 16.1101C24.8475 14.2265 25.9997 11.5676 25.9997 8.81498C25.9997 6.92607 25.4691 5.08592 24.4653 3.49295C23.7584 2.37186 22.5381 1.70264 21.2013 1.70264H10.7994C9.46813 1.70264 8.255 2.36201 7.55375 3.46623C6.35625 5.35279 5.83563 7.53764 6.04844 9.78467C6.50438 14.6079 10.4991 18.4803 15.3406 18.7923ZM9.175 4.49529C9.51656 3.95701 10.1391 3.62264 10.7994 3.62264H21.2013C21.865 3.62264 22.4931 3.96529 22.8409 4.51686C23.6513 5.80264 24.0797 7.28889 24.0797 8.81498C24.0797 11.0717 23.1725 13.1651 21.5256 14.7095C19.8797 16.2526 17.7278 17.0211 15.4641 16.8764C11.5541 16.6244 8.32781 13.4979 7.95969 9.60389C7.78781 7.78514 8.20781 6.01857 9.175 4.49529Z" fill="black"/>
</svg>
