<svg width="28" height="28" viewBox="0 0 28 28" fill="none" xmlns="http://www.w3.org/2000/svg">
<path d="M18.3754 21.5949C18.3754 22.1783 18.8421 22.6449 19.4254 22.6449L24.8504 22.6449C25.4337 22.6449 25.9004 22.1783 25.9004 21.5949C25.9004 21.0116 25.4337 20.5449 24.8504 20.5449L19.4254 20.5449C18.8537 20.5449 18.3754 21.0233 18.3754 21.5949Z" fill="white"/>
<path d="M9.625 14.0002C9.625 13.4169 9.15833 12.9502 8.575 12.9502L3.15 12.9502C2.56667 12.9502 2.1 13.4169 2.1 14.0002C2.1 14.5835 2.56667 15.0502 3.15 15.0502L8.575 15.0502C9.14667 15.0502 9.625 14.5835 9.625 14.0002Z" fill="white"/>
<path d="M18.3754 6.40498C18.3754 6.98831 18.8421 7.45498 19.4254 7.45498L24.8504 7.45498C25.4337 7.45498 25.9004 6.98831 25.9004 6.40498C25.9004 5.82165 25.4337 5.35498 24.8504 5.35498L19.4254 5.35498C18.8537 5.35498 18.3754 5.82165 18.3754 6.40498Z" fill="white"/>
<path d="M16.1348 8.57506L16.1348 4.23506C16.1348 3.65173 15.6681 3.18506 15.0848 3.18506C14.5014 3.18506 14.0348 3.65173 14.0348 4.23506L14.0348 5.35506L3.14977 5.35506C2.56643 5.35506 2.09977 5.82172 2.09977 6.40506C2.09977 6.98839 2.56643 7.45506 3.14977 7.45506L14.0348 7.45506L14.0348 8.57506C14.0348 9.15839 14.5014 9.62506 15.0848 9.62506C15.6681 9.62506 16.1348 9.14673 16.1348 8.57506Z" fill="white"/>
<path d="M16.1348 23.765L16.1348 19.425C16.1348 18.8417 15.6681 18.375 15.0848 18.375C14.5014 18.375 14.0348 18.8417 14.0348 19.425L14.0348 20.545L3.14977 20.545C2.56643 20.545 2.09977 21.0117 2.09977 21.595C2.09977 22.1783 2.56643 22.645 3.14977 22.645L14.0348 22.645L14.0348 23.765C14.0348 24.3483 14.5014 24.815 15.0848 24.815C15.6681 24.815 16.1348 24.3483 16.1348 23.765Z" fill="white"/>
<path d="M13.9654 16.1698L13.9654 15.0498L24.8504 15.0498C25.4337 15.0498 25.9004 14.5831 25.9004 13.9998C25.9004 13.4165 25.4337 12.9498 24.8504 12.9498L13.9654 12.9498L13.9654 11.8298C13.9654 11.2465 13.4987 10.7798 12.9154 10.7798C12.3321 10.7798 11.8654 11.2465 11.8654 11.8298L11.8654 16.1698C11.8654 16.7531 12.3321 17.2198 12.9154 17.2198C13.4987 17.2198 13.9654 16.7531 13.9654 16.1698Z" fill="white"/>
</svg>
