<svg width="22" height="22" viewBox="0 0 22 22" fill="none" xmlns="http://www.w3.org/2000/svg">
<path d="M14.2168 2.59418H7.78185C5.49935 2.59418 4.99518 3.73084 4.70185 5.12418L3.66602 10.0833H18.3327L17.2969 5.12418C17.0035 3.73084 16.4993 2.59418 14.2168 2.59418Z" stroke="black" stroke-width="1.5" stroke-linecap="round" stroke-linejoin="round"/>
<path d="M20.157 18.1683C20.2578 19.2408 19.3962 20.1667 18.2962 20.1667H16.5728C15.5828 20.1667 15.4453 19.745 15.2712 19.2225L15.0878 18.6725C14.8312 17.9208 14.6662 17.4167 13.3462 17.4167H8.65285C7.33285 17.4167 7.14035 17.985 6.91118 18.6725L6.72785 19.2225C6.55368 19.745 6.41618 20.1667 5.42618 20.1667H3.70285C2.60285 20.1667 1.74118 19.2408 1.84201 18.1683L2.35535 12.5858C2.48368 11.2108 2.74951 10.0833 5.15118 10.0833H16.8478C19.2495 10.0833 19.5153 11.2108 19.6437 12.5858L20.157 18.1683Z" stroke="black" stroke-width="1.5" stroke-linecap="round" stroke-linejoin="round"/>
<path d="M3.66667 7.33334H2.75" stroke="black" stroke-width="1.5" stroke-linecap="round" stroke-linejoin="round"/>
<path d="M19.2507 7.33334H18.334" stroke="black" stroke-width="1.5" stroke-linecap="round" stroke-linejoin="round"/>
<path d="M11 2.75V4.58333" stroke="black" stroke-width="1.5" stroke-linecap="round" stroke-linejoin="round"/>
<path d="M9.625 4.58334H12.375" stroke="black" stroke-width="1.5" stroke-linecap="round" stroke-linejoin="round"/>
<path d="M5.5 13.75H8.25" stroke="black" stroke-width="1.5" stroke-linecap="round" stroke-linejoin="round"/>
<path d="M13.75 13.75H16.5" stroke="black" stroke-width="1.5" stroke-linecap="round" stroke-linejoin="round"/>
</svg>
