<svg width="10" height="10" viewBox="0 0 10 10" fill="none" xmlns="http://www.w3.org/2000/svg">
<g clip-path="url(#clip0_229_4536)">
<path d="M1.63086 2.16113H3.50503V3.1486H1.63086V2.16113Z" fill="#36A439"/>
<path d="M5.12908 0.716483C5.11273 0.62009 5.04904 0.53681 4.95744 0.49685C3.43871 -0.165607 1.69661 -0.165626 0.177875 0.49685C0.0710282 0.543453 0.00195312 0.648951 0.00195312 0.765509V9.70689C0.00195312 9.86876 0.133186 10 0.295058 10H4.84026C4.98556 10 5.10583 9.89417 5.129 9.75545C5.12637 9.73962 5.12639 0.732447 5.12908 0.716483ZM4.09094 1.86799V3.44168C4.09094 3.60355 3.95971 3.73478 3.79784 3.73478H1.33746C1.17558 3.73478 1.04435 3.60355 1.04435 3.44168V1.86799C1.04435 1.70612 1.17558 1.57489 1.33746 1.57489H3.79784C3.95973 1.57489 4.09094 1.70612 4.09094 1.86799ZM1.98037 6.81596C1.87654 6.81596 1.78044 6.76101 1.72776 6.6715C1.67507 6.58198 1.67371 6.47129 1.72414 6.3805L2.37526 5.20847C2.45385 5.06696 2.63232 5.01596 2.77381 5.09459C2.91532 5.1732 2.96632 5.35164 2.88769 5.49316L2.47848 6.22975H3.15492C3.25968 6.22975 3.35646 6.28565 3.40881 6.3764C3.46116 6.46714 3.4611 6.57893 3.40863 6.6696L2.694 7.905C2.63968 7.99891 2.54122 8.0514 2.44002 8.0514C2.39019 8.0514 2.33974 8.03869 2.29353 8.01194C2.1534 7.93089 2.10553 7.75159 2.18656 7.61146L2.64676 6.81594H1.98037V6.81596Z" fill="#36A439"/>
<path d="M9.70488 1.4623H9.63259V1.01527C9.63259 0.853401 9.50135 0.722168 9.33948 0.722168C9.17761 0.722168 9.04638 0.853401 9.04638 1.01527V1.4623H8.51621V1.01527C8.51621 0.853401 8.38497 0.722168 8.2231 0.722168C8.06123 0.722168 7.93 0.853401 7.93 1.01527V1.4623H7.84752C7.68564 1.4623 7.55441 1.59353 7.55441 1.7554V2.5402C7.55441 3.11252 7.95063 3.59384 8.48309 3.72485V7.22105C8.48309 7.62575 8.15283 7.955 7.74688 7.955C7.34093 7.955 7.01068 7.62575 7.01068 7.22105V5.53882C7.01068 4.81847 6.42967 4.2314 5.71094 4.21922V4.80543C6.10641 4.81745 6.42447 5.14168 6.42447 5.53882V7.22105C6.42447 7.94898 7.0177 8.54121 7.74688 8.54121C8.47607 8.54121 9.0693 7.94898 9.0693 7.22105V3.72485C9.60177 3.59384 9.99797 3.11254 9.99797 2.5402V1.7554C9.99799 1.59353 9.86678 1.4623 9.70488 1.4623Z" fill="#36A439"/>
</g>
<defs>
<clipPath id="clip0_229_4536">
<rect width="10" height="10" fill="white"/>
</clipPath>
</defs>
</svg>
