<svg width="64" height="58" viewBox="0 0 64 58" fill="none" xmlns="http://www.w3.org/2000/svg">
<path d="M64 18C64 13.8237 64 10.9021 64 10.625C64 7.52338 61.4766 5 58.375 5H57.625V11.875C57.625 12.9105 56.7855 13.75 55.75 13.75C54.7145 13.75 53.875 12.9105 53.875 11.875C53.875 9.77012 53.875 3.971 53.875 1.875C53.875 0.8395 53.0355 0 52 0C50.9645 0 50.125 0.8395 50.125 1.875V5H37.625V11.875C37.625 12.9105 36.7855 13.75 35.75 13.75C34.7145 13.75 33.875 12.9105 33.875 11.875C33.875 9.77012 33.875 3.971 33.875 1.875C33.875 0.8395 33.0355 0 32 0C30.9645 0 30.125 0.8395 30.125 1.875V5H17.625V11.875C17.625 12.9105 16.7855 13.75 15.75 13.75C14.7145 13.75 13.875 12.9105 13.875 11.875C13.875 9.77012 13.875 3.971 13.875 1.875C13.875 0.8395 13.0355 0 12 0C10.9645 0 10.125 0.8395 10.125 1.875V5H5.625C2.52338 5 0 7.52338 0 10.625V18H64Z" fill="#36A439"/>
<path d="M0 21.75V52.125C0 55.2266 2.52338 57.75 5.625 57.75H58.375C61.4766 57.75 64 55.2266 64 52.125C64 51.3219 64 33.7735 64 21.75C62.8331 21.75 0.6455 21.75 0 21.75ZM18 47.75H14C12.9645 47.75 12.125 46.9105 12.125 45.875C12.125 44.8395 12.9645 44 14 44H18C19.0355 44 19.875 44.8395 19.875 45.875C19.875 46.9105 19.0355 47.75 18 47.75ZM18 39.75H14C12.9645 39.75 12.125 38.9105 12.125 37.875C12.125 36.8395 12.9645 36 14 36H18C19.0355 36 19.875 36.8395 19.875 37.875C19.875 38.9105 19.0355 39.75 18 39.75ZM18 31.75H14C12.9645 31.75 12.125 30.9105 12.125 29.875C12.125 28.8395 12.9645 28 14 28H18C19.0355 28 19.875 28.8395 19.875 29.875C19.875 30.9105 19.0355 31.75 18 31.75ZM34 47.75H30C28.9645 47.75 28.125 46.9105 28.125 45.875C28.125 44.8395 28.9645 44 30 44H34C35.0355 44 35.875 44.8395 35.875 45.875C35.875 46.9105 35.0355 47.75 34 47.75ZM34 39.75H30C28.9645 39.75 28.125 38.9105 28.125 37.875C28.125 36.8395 28.9645 36 30 36H34C35.0355 36 35.875 36.8395 35.875 37.875C35.875 38.9105 35.0355 39.75 34 39.75ZM34 31.75H30C28.9645 31.75 28.125 30.9105 28.125 29.875C28.125 28.8395 28.9645 28 30 28H34C35.0355 28 35.875 28.8395 35.875 29.875C35.875 30.9105 35.0355 31.75 34 31.75ZM50 47.75H46C44.9645 47.75 44.125 46.9105 44.125 45.875C44.125 44.8395 44.9645 44 46 44H50C51.0355 44 51.875 44.8395 51.875 45.875C51.875 46.9105 51.0355 47.75 50 47.75ZM50 39.75H46C44.9645 39.75 44.125 38.9105 44.125 37.875C44.125 36.8395 44.9645 36 46 36H50C51.0355 36 51.875 36.8395 51.875 37.875C51.875 38.9105 51.0355 39.75 50 39.75ZM50 31.75H46C44.9645 31.75 44.125 30.9105 44.125 29.875C44.125 28.8395 44.9645 28 46 28H50C51.0355 28 51.875 28.8395 51.875 29.875C51.875 30.9105 51.0355 31.75 50 31.75Z" fill="#36A439"/>
</svg>
