<svg width="24" height="24" viewBox="0 0 24 24" fill="none" xmlns="http://www.w3.org/2000/svg">
<path d="M3.00163 17.9935C3.09543 18.0875 3.19492 18.1726 3.29965 18.2496C3.1901 18.1718 3.09118 18.088 3.00158 17.9984C2.91521 17.9121 2.83426 17.817 2.7588 17.7122C2.83225 17.8108 2.91295 17.9047 3.00163 17.9935ZM3.00163 6.00646C2.91295 6.09532 2.83225 6.18924 2.7588 6.28784C2.83426 6.18298 2.91521 6.08795 3.00158 6.00158C3.09118 5.91198 3.1901 5.82822 3.29964 5.75036C3.19491 5.82739 3.09543 5.91247 3.00163 6.00646ZM16.9984 6.00646C16.9046 5.91247 16.8051 5.82739 16.7004 5.75036C16.8099 5.82822 16.9088 5.91198 16.9984 6.00158C17.0848 6.08795 17.1657 6.18298 17.2412 6.28784C17.1677 6.18923 17.087 6.09532 16.9984 6.00646ZM16.9984 17.9935C17.087 17.9047 17.1677 17.8108 17.2412 17.7122C17.1657 17.817 17.0848 17.9121 16.9984 17.9984C16.9088 18.088 16.8099 18.1718 16.7004 18.2496C16.8051 18.1726 16.9046 18.0875 16.9984 17.9935Z" stroke="black" stroke-width="1.5"/>
<path d="M21.23 8.8018C21.7134 8.87892 22.0444 9.03888 22.2705 9.25952C22.346 9.33319 22.4098 9.41363 22.4636 9.5C22.506 9.56785 22.5422 9.63937 22.5731 9.71416L21.23 10.3111V10.3V9.5V8.8018Z" fill="black" stroke="black" stroke-width="21.3333"/>
</svg>
