<svg width="149" height="164" viewBox="0 0 149 164" fill="none" xmlns="http://www.w3.org/2000/svg">
<g clip-path="url(#clip0_215_16091)">
<path fill-rule="evenodd" clip-rule="evenodd" d="M73.0001 46.9893L47.7884 55.9944L92.7342 25.597L90.0273 36.2481L103.106 30.3996C97.2155 20.3859 86.4386 14.1631 74.6679 14.1631C56.4657 14.1631 41.714 28.8624 41.714 47C41.714 65.1374 56.4657 79.8366 74.6679 79.8366C87.2512 79.8366 98.7073 72.7141 104.257 61.4659L104.518 60.9376L121.5 53.4594L120.861 56.5413C116.353 78.329 97.0236 94.0002 74.6679 94.0002C48.6197 94 27.5 72.9555 27.5 46.9998C27.5 21.0443 48.6197 0 74.6681 0C97.181 0 116.452 16.0348 120.863 37.4561L121.127 38.7383L70.7115 60.9374L73.0001 46.9893Z" fill="#36A439"/>
</g>
<path d="M18.3369 144.85V149H2.46582V125.044H18.3369V129.178H7.47949V134.955H17.7227V138.807H7.47949V144.85H18.3369ZM32.8301 141.38H21.9229V137.146H32.8301V141.38ZM47.4893 149.415C40.5166 149.415 36.1504 144.75 36.1504 137.014C36.1504 129.294 40.5498 124.629 47.4893 124.629C53.25 124.629 57.6328 128.281 58.0146 133.644H53.1338C52.6689 130.705 50.4111 128.779 47.4893 128.779C43.7041 128.779 41.2637 131.95 41.2637 136.997C41.2637 142.11 43.6709 145.265 47.5059 145.265C50.4775 145.265 52.6191 143.521 53.1504 140.683H58.0312C57.4668 146.028 53.3662 149.415 47.4893 149.415ZM60.8369 149V125.044H65.6016V134.374H65.7012C66.6475 132.133 68.5898 130.871 71.2959 130.871C75.2471 130.871 77.5049 133.428 77.5049 137.545V149H72.6572V138.574C72.6572 136.283 71.5283 134.889 69.3203 134.889C67.0293 134.889 65.6846 136.499 65.6846 138.84V149H60.8369ZM87.4824 145.779C89.5908 145.779 91.334 144.401 91.334 142.476V141.181L87.582 141.413C85.7725 141.546 84.7432 142.359 84.7432 143.621C84.7432 144.949 85.8389 145.779 87.4824 145.779ZM85.8887 149.282C82.502 149.282 79.9287 147.091 79.9287 143.887C79.9287 140.649 82.4189 138.773 86.8516 138.508L91.334 138.242V137.063C91.334 135.403 90.1719 134.44 88.3457 134.44C86.5361 134.44 85.3906 135.337 85.1582 136.648H80.7256C80.9082 133.195 83.8467 130.821 88.5615 130.821C93.127 130.821 96.0986 133.179 96.0986 136.765V149H91.417V146.277H91.3174C90.3213 148.17 88.1133 149.282 85.8887 149.282ZM99.2363 149V131.203H103.918V134.407H104.018C104.648 132.149 106.159 130.921 108.251 130.921C108.815 130.921 109.297 131.004 109.629 131.104V135.37C109.23 135.204 108.566 135.088 107.869 135.088C105.479 135.088 104.084 136.549 104.084 139.056V149H99.2363ZM119.241 145.215C121.665 145.215 123.209 143.289 123.209 140.068C123.209 136.864 121.665 134.806 119.241 134.806C116.851 134.806 115.34 136.831 115.34 140.068C115.34 143.322 116.834 145.215 119.241 145.215ZM119.158 155.707C114.477 155.707 111.306 153.433 110.924 150.262H115.672C116.054 151.49 117.448 152.337 119.291 152.337C121.798 152.337 123.192 150.942 123.192 148.884V145.763H123.093C122.263 147.655 120.171 148.95 117.598 148.95C113.248 148.95 110.376 145.597 110.376 140.035C110.376 134.391 113.165 130.921 117.681 130.921C120.237 130.921 122.246 132.266 123.176 134.308H123.259V131.203H128.04V148.751C128.04 153.001 124.487 155.707 119.158 155.707ZM139.196 134.407C137.071 134.407 135.544 136.018 135.378 138.242H142.932C142.832 135.968 141.354 134.407 139.196 134.407ZM142.998 143.555H147.447C146.916 147.041 143.729 149.382 139.329 149.382C133.851 149.382 130.563 145.879 130.563 140.185C130.563 134.507 133.884 130.821 139.146 130.821C144.326 130.821 147.597 134.324 147.597 139.736V141.214H135.328V141.513C135.328 144.053 136.938 145.796 139.412 145.796C141.188 145.796 142.55 144.916 142.998 143.555Z" fill="#36A439"/>
<defs>
<clipPath id="clip0_215_16091">
<rect width="94" height="94" fill="white" transform="translate(27.5)"/>
</clipPath>
</defs>
</svg>
