<svg width="32" height="32" viewBox="0 0 32 32" fill="none" xmlns="http://www.w3.org/2000/svg">
<path d="M24.4844 4H7.51562C5.57709 4 4 5.57709 4 7.51562V24.4844C4 26.4229 5.57709 28 7.51562 28H24.4844C26.4229 28 28 26.4229 28 24.4844V7.51562C28 5.57709 26.4229 4 24.4844 4ZM26.5938 24.4844C26.5938 25.6475 25.6475 26.5938 24.4844 26.5938H7.51562C6.35254 26.5938 5.40625 25.6475 5.40625 24.4844V7.51562C5.40625 6.35254 6.35254 5.40625 7.51562 5.40625H24.4844C25.6475 5.40625 26.5938 6.35254 26.5938 7.51562V24.4844Z" fill="black"/>
<path d="M23.5987 14.3174L24.2315 13.6846C24.5062 13.41 24.5062 12.9648 24.2315 12.6904C23.957 12.4157 23.5117 12.4157 23.2372 12.6904L22.6354 13.2921L21.9094 11.1142C21.6219 10.2514 20.8177 9.67188 19.9084 9.67188H12.0916C11.1823 9.67188 10.3781 10.2514 10.0906 11.1142L9.36462 13.2921L8.76276 12.6904C8.48828 12.4157 8.04315 12.4157 7.76849 12.6904C7.49384 12.9648 7.49384 13.41 7.76849 13.6846L8.40131 14.3174C7.89209 14.7029 7.5625 15.3137 7.5625 16V18.8125C7.5625 19.7291 8.15027 20.5106 8.96875 20.801V21.625C8.96875 22.7881 9.91504 23.7344 11.0781 23.7344C12.2412 23.7344 13.1875 22.7881 13.1875 21.625V20.9219H18.8125V21.625C18.8125 22.7881 19.7588 23.7344 20.9219 23.7344C22.085 23.7344 23.0312 22.7881 23.0312 21.625V20.801C23.8497 20.5106 24.4375 19.7291 24.4375 18.8125V16C24.4375 15.3137 24.1079 14.7029 23.5987 14.3174ZM12.0916 11.0781H19.9084C20.2114 11.0781 20.4795 11.2713 20.5754 11.559L21.3525 13.8906H10.6475L11.4246 11.559C11.5205 11.2713 11.7886 11.0781 12.0916 11.0781ZM11.7812 21.625C11.7812 22.0126 11.4658 22.3281 11.0781 22.3281C10.6905 22.3281 10.375 22.0126 10.375 21.625V20.9219H11.7812V21.625ZM20.9219 22.3281C20.5342 22.3281 20.2188 22.0126 20.2188 21.625V20.9219H21.625V21.625C21.625 22.0126 21.3095 22.3281 20.9219 22.3281ZM22.3281 19.5156H18.8125V18.8125C18.8125 18.4241 18.4977 18.1094 18.1094 18.1094C17.721 18.1094 17.4062 18.4241 17.4062 18.8125V19.5156H14.5938V18.8125C14.5938 18.4241 14.279 18.1094 13.8906 18.1094C13.5023 18.1094 13.1875 18.4241 13.1875 18.8125V19.5156H9.67188C9.28424 19.5156 8.96875 19.2001 8.96875 18.8125V18.1094H11.0781C11.4665 18.1094 11.7812 17.7946 11.7812 17.4062C11.7812 17.0179 11.4665 16.7031 11.0781 16.7031H8.96875V16C8.96875 15.6124 9.28424 15.2969 9.67188 15.2969H22.3234C22.325 15.2969 22.3265 15.2971 22.3279 15.2971H22.3301C22.7169 15.298 23.0312 15.6129 23.0312 16V16.7031H20.9219C20.5335 16.7031 20.2188 17.0179 20.2188 17.4062C20.2188 17.7946 20.5335 18.1094 20.9219 18.1094H23.0312V18.8125C23.0312 19.2001 22.7158 19.5156 22.3281 19.5156Z" fill="black"/>
</svg>
