<svg width="32" height="32" viewBox="0 0 32 32" fill="none" xmlns="http://www.w3.org/2000/svg">
<path d="M4.70312 26.5938C4.31476 26.5938 4 26.9085 4 27.2969C4 27.6852 4.31476 28 4.70312 28H27.2969C27.6852 28 28 27.6852 28 27.2969C28 26.9085 27.6852 26.5938 27.2969 26.5938H26.5938V25.1406H27.2969C27.6852 25.1406 28 24.8259 28 24.4375V23.0312C28 22.6429 27.6852 22.3281 27.2969 22.3281C26.9085 22.3281 26.5938 22.6429 26.5938 23.0312V23.7344H25.1875V22.3281H25.8906C26.279 22.3281 26.5938 22.0134 26.5938 21.625V18.8125C26.5938 18.4241 26.279 18.1094 25.8906 18.1094H14.5938C14.2054 18.1094 13.8906 18.4241 13.8906 18.8125V21.625C13.8906 22.0134 14.2054 22.3281 14.5938 22.3281H15.2969V23.7344H13.8906V23.0312C13.8906 22.6429 13.5759 22.3281 13.1875 22.3281C12.7991 22.3281 12.4844 22.6429 12.4844 23.0312V24.4375C12.4844 24.8259 12.7991 25.1406 13.1875 25.1406H13.8906V26.5938H9.67188V20.8587C12.3665 20.3729 13.8906 17.3632 13.8906 14.5938C13.8906 12.9672 13.3926 11.3542 12.4415 10.1348C12.4283 10.0985 12.412 10.063 12.3926 10.0289C12.454 9.65997 12.4844 9.31024 12.4844 8.96875C12.4844 6.63855 11.2098 4 8.96875 4C6.72845 4 5.45312 6.63708 5.45312 8.96875C5.45312 9.32123 5.48517 9.68213 5.55054 10.0641C4.53119 11.3209 4 12.9694 4 14.5938C4 17.7791 5.8576 20.4218 8.26562 20.8582V26.5938H4.70312ZM15.2969 19.5156H25.1875V20.9219H15.2969V19.5156ZM23.7812 22.3281V23.7344H16.7031V22.3281H23.7812ZM15.2969 25.1406H25.1875V26.5938H15.2969V25.1406ZM12.4774 14.892C12.3963 16.7859 11.4185 18.9106 9.67188 19.4149V17.6976L12.4774 14.892ZM11.6657 11.485C11.9514 11.9605 12.1682 12.4987 12.3064 13.0742L9.67188 15.7087V13.4788L11.6657 11.485ZM6.82477 10.7385C6.97839 10.5702 7.04102 10.3382 6.99286 10.1155C6.90295 9.70044 6.85938 9.32544 6.85938 8.96875C6.85938 7.07104 7.84503 5.40625 8.96875 5.40625C10.0925 5.40625 11.0781 7.07104 11.0781 8.96875C11.0781 9.65741 10.9399 10.0368 10.9307 10.2311L9.67188 11.4899V8.96875C9.67188 8.58038 9.35712 8.26562 8.96875 8.26562C8.58038 8.26562 8.26562 8.58038 8.26562 8.96875V14.3171L5.96307 12.0425C6.18848 11.5597 6.47815 11.118 6.82477 10.7385ZM5.40625 14.5938C5.40625 14.2427 5.43628 13.8952 5.49396 13.5559L8.26562 16.2937V19.4162C6.47339 18.905 5.40625 16.6916 5.40625 14.5938Z" fill="black"/>
<path d="M19.6661 11.0269C19.9413 11.8719 20.7362 12.4844 21.6719 12.4844H25.8906C27.0537 12.4844 28 11.5381 28 10.375C28 9.45746 27.4109 8.67468 26.5912 8.38519C26.5928 8.34546 26.5938 8.30554 26.5938 8.26562C26.5938 6.72369 25.3475 5.40625 23.7812 5.40625C23.5608 5.40625 23.3442 5.43298 23.1343 5.4837C22.4823 4.56635 21.4142 4 20.2656 4C18.3298 4 16.7031 5.61151 16.7031 7.5625C16.7031 9.32324 18.0237 10.7489 19.6661 11.0269ZM23.1635 8.88342C22.9382 8.65839 22.6711 8.49048 22.3798 8.38684C22.3766 8.34711 22.375 8.30664 22.375 8.26562C22.375 7.47791 23.019 6.8125 23.7812 6.8125C24.5435 6.8125 25.1875 7.47791 25.1875 8.26562C25.1875 8.30627 25.1859 8.34674 25.1824 8.38684C24.8912 8.49048 24.6241 8.65839 24.399 8.88342C24.1246 9.15808 24.1246 9.60321 24.399 9.87787C24.6737 10.1523 25.1188 10.1523 25.3935 9.87787C25.8328 9.4386 26.5938 9.74841 26.5938 10.375C26.5938 10.7626 26.2783 11.0781 25.8906 11.0781H21.6719C21.2842 11.0781 20.9688 10.7626 20.9688 10.375C20.9688 9.75592 21.7226 9.43127 22.169 9.87787C22.4437 10.1523 22.889 10.1525 23.1635 9.87787C23.4381 9.60321 23.4381 9.1579 23.1635 8.88342ZM20.2656 5.40625C20.8975 5.40625 21.4886 5.69208 21.8841 6.16376C21.2841 6.72662 20.9367 7.51929 20.9711 8.38446C20.3795 8.59229 19.9298 9.04895 19.7114 9.59753C18.801 9.35126 18.1094 8.51923 18.1094 7.5625C18.1094 6.39374 19.0969 5.40625 20.2656 5.40625Z" fill="black"/>
</svg>
