<svg width="32" height="32" viewBox="0 0 32 32" fill="none" xmlns="http://www.w3.org/2000/svg">
<path d="M16.36 5C10.0836 5 5 10.0836 5 16.36C5 22.6364 10.0836 27.72 16.36 27.72C22.6364 27.72 27.72 22.6364 27.72 16.36C27.72 10.0836 22.6364 5 16.36 5ZM16.36 25.448C11.3616 25.448 7.272 21.3584 7.272 16.36C7.272 11.3616 11.3616 7.272 16.36 7.272C21.3584 7.272 25.448 11.3616 25.448 16.36C25.448 21.3584 21.3584 25.448 16.36 25.448Z" fill="black"/>
<path d="M11.8169 18.2629C12.8678 18.2629 13.7197 17.411 13.7197 16.3601C13.7197 15.3092 12.8678 14.4573 11.8169 14.4573C10.766 14.4573 9.91406 15.3092 9.91406 16.3601C9.91406 17.411 10.766 18.2629 11.8169 18.2629Z" fill="black"/>
<path d="M20.9048 18.2629C21.9556 18.2629 22.8076 17.411 22.8076 16.3601C22.8076 15.3092 21.9556 14.4573 20.9048 14.4573C19.8539 14.4573 19.002 15.3092 19.002 16.3601C19.002 17.411 19.8539 18.2629 20.9048 18.2629Z" fill="black"/>
</svg>
