<svg width="32" height="32" viewBox="0 0 32 32" fill="none" xmlns="http://www.w3.org/2000/svg">
<path d="M16.0009 27.3622C22.2659 27.3622 27.363 22.2652 27.363 16C27.363 9.73488 22.2659 4.6377 16.0009 4.6377C9.73586 4.6377 4.63867 9.73488 4.63867 16C4.63867 22.2652 9.73586 27.3622 16.0009 27.3622ZM16.0009 6.5577C21.2074 6.5577 25.443 10.7935 25.443 16C25.443 21.2064 21.2074 25.4422 16.0009 25.4422C10.7943 25.4422 6.55867 21.2064 6.55867 16C6.55867 10.7935 10.7943 6.5577 16.0009 6.5577Z" fill="black"/>
<path d="M11.5381 18.8585C13.1168 18.8585 14.3966 17.5787 14.3966 16.0001C14.3966 14.4214 13.1168 13.1416 11.5381 13.1416C9.95946 13.1416 8.67969 14.4214 8.67969 16.0001C8.67969 17.5787 9.95946 18.8585 11.5381 18.8585Z" fill="black"/>
<path d="M20.4639 18.8585C22.0426 18.8585 23.3224 17.5787 23.3224 16.0001C23.3224 14.4214 22.0426 13.1416 20.4639 13.1416C18.8852 13.1416 17.6055 14.4214 17.6055 16.0001C17.6055 17.5787 18.8852 18.8585 20.4639 18.8585Z" fill="black"/>
<path d="M14.3359 11.9288C14.4609 12.0538 14.6247 12.1163 14.7884 12.1163C14.9522 12.1163 15.1159 12.0538 15.2409 11.9288L16.073 11.0969L16.905 11.9288C17.03 12.0538 17.1937 12.1163 17.3575 12.1163C17.5213 12.1163 17.685 12.0538 17.81 11.9288C18.06 11.6788 18.06 11.2737 17.81 11.0238L16.978 10.192L17.81 9.36008C18.06 9.11023 18.06 8.70508 17.81 8.45508C17.56 8.20508 17.155 8.20508 16.905 8.45508L16.073 9.28701L15.2409 8.45508C14.9909 8.20508 14.5859 8.20508 14.3359 8.45508C14.0859 8.70508 14.0859 9.11023 14.3359 9.36008L15.1679 10.192L14.3359 11.0238C14.0859 11.2737 14.0859 11.6788 14.3359 11.9288Z" fill="black"/>
<path d="M17.81 20.0713C17.56 19.8213 17.155 19.8213 16.905 20.0713L16.073 20.9033L15.2409 20.0713C14.9909 19.8213 14.5859 19.8213 14.3359 20.0713C14.0859 20.3211 14.0859 20.7264 14.3359 20.9763L15.1679 21.8082L14.3359 22.6402C14.0859 22.89 14.0859 23.2954 14.3359 23.5452C14.4609 23.6702 14.6247 23.7327 14.7884 23.7327C14.9522 23.7327 15.1159 23.6702 15.2409 23.5452L16.073 22.7132L16.905 23.5452C17.03 23.6702 17.1937 23.7327 17.3575 23.7327C17.5213 23.7327 17.685 23.6702 17.81 23.5452C18.06 23.2954 18.06 22.89 17.81 22.6402L16.978 21.8082L17.81 20.9763C18.06 20.7264 18.06 20.3211 17.81 20.0713Z" fill="black"/>
</svg>
