<svg width="32" height="32" viewBox="0 0 32 32" fill="none" xmlns="http://www.w3.org/2000/svg">
<path d="M12.5188 15.4669C13.856 15.4669 14.94 14.3829 14.94 13.0457C14.94 11.7085 13.856 10.6245 12.5188 10.6245C11.1817 10.6245 10.0977 11.7085 10.0977 13.0457C10.0977 14.3829 11.1817 15.4669 12.5188 15.4669Z" fill="black"/>
<path d="M20.2024 15.4669C21.5396 15.4669 22.6236 14.3829 22.6236 13.0457C22.6236 11.7085 21.5396 10.6245 20.2024 10.6245C18.8652 10.6245 17.7812 11.7085 17.7812 13.0457C17.7812 14.3829 18.8652 15.4669 20.2024 15.4669Z" fill="black"/>
<path d="M16.3606 24.3902C17.6978 24.3902 18.7818 23.3062 18.7818 21.969C18.7818 20.6319 17.6978 19.5479 16.3606 19.5479C15.0235 19.5479 13.9395 20.6319 13.9395 21.969C13.9395 23.3062 15.0235 24.3902 16.3606 24.3902Z" fill="black"/>
<path d="M10.7463 20.6577C11.4863 20.6577 12.0883 20.0557 12.0883 19.3157C12.0883 18.5758 11.4863 17.9739 10.7463 17.9739C10.0063 17.9739 9.4043 18.5758 9.4043 19.3157C9.4043 20.0557 10.0063 20.6577 10.7463 20.6577Z" fill="black"/>
<path d="M20.6328 19.3157C20.6328 20.0557 21.2349 20.6577 21.9748 20.6577C22.7147 20.6577 23.3168 20.0557 23.3168 19.3157C23.3168 18.5758 22.7147 17.9739 21.9748 17.9739C21.2349 17.9739 20.6328 18.5758 20.6328 19.3157Z" fill="black"/>
<path d="M16.36 27.72C22.6241 27.72 27.7202 22.624 27.7202 16.36C27.7202 10.096 22.6241 5 16.36 5C10.096 5 5 10.096 5 16.36C5 22.624 10.096 27.72 16.36 27.72ZM16.36 7.00077C21.5208 7.00077 25.7194 11.1993 25.7194 16.36C25.7194 21.5207 21.5208 25.7192 16.36 25.7192C11.1993 25.7192 7.00077 21.5207 7.00077 16.36C7.00077 11.1993 11.1993 7.00077 16.36 7.00077Z" fill="black"/>
</svg>
