<svg width="32" height="32" viewBox="0 0 32 32" fill="none" xmlns="http://www.w3.org/2000/svg">
<path d="M14.2337 10.4042C14.8293 9.80856 14.8293 8.8428 14.2337 8.24714C13.638 7.65148 12.6723 7.65148 12.0766 8.24714C11.4809 8.8428 11.4809 9.80856 12.0766 10.4042C12.6722 10.9999 13.638 10.9999 14.2337 10.4042Z" fill="black"/>
<path d="M18.3554 10.8509C19.1978 10.8509 19.8807 10.168 19.8807 9.32558C19.8807 8.48319 19.1978 7.80029 18.3554 7.80029C17.513 7.80029 16.8301 8.48319 16.8301 9.32558C16.8301 10.168 17.513 10.8509 18.3554 10.8509Z" fill="black"/>
<path d="M15.7558 16.888C16.5982 16.888 17.281 16.2051 17.281 15.3627C17.281 14.5203 16.5982 13.8374 15.7558 13.8374C14.9134 13.8374 14.2305 14.5203 14.2305 15.3627C14.2305 16.2051 14.9134 16.888 15.7558 16.888Z" fill="black"/>
<path d="M11.9572 14.3626C12.3963 14.3626 12.7523 14.0067 12.7523 13.5675C12.7523 13.1284 12.3963 12.7725 11.9572 12.7725C11.5181 12.7725 11.1621 13.1284 11.1621 13.5675C11.1621 14.0067 11.5181 14.3626 11.9572 14.3626Z" fill="black"/>
<path d="M19.5549 14.3626C19.994 14.3626 20.3499 14.0067 20.3499 13.5675C20.3499 13.1284 19.994 12.7725 19.5549 12.7725C19.1157 12.7725 18.7598 13.1284 18.7598 13.5675C18.7598 14.0067 19.1157 14.3626 19.5549 14.3626Z" fill="black"/>
<path d="M15.7556 19.4153C20.0828 19.4153 23.6032 15.895 23.6032 11.5678C23.6032 7.2407 20.0828 3.72021 15.7556 3.72021C11.4286 3.72021 7.9082 7.2407 7.9082 11.5678C7.9082 15.895 11.4286 19.4153 15.7556 19.4153ZM15.7556 5.3974C19.158 5.3974 21.926 8.16542 21.926 11.5678C21.926 14.9701 19.158 17.7381 15.7556 17.7381C12.3534 17.7381 9.58539 14.9701 9.58539 11.5678C9.58539 8.16542 12.3534 5.3974 15.7556 5.3974Z" fill="black"/>
<path d="M11.8968 29.4401H19.6139C22.2354 29.4401 24.3682 27.3073 24.3682 24.6859C24.3682 22.0644 22.2354 19.9316 19.6139 19.9316H11.8968C9.27537 19.9316 7.14258 22.0644 7.14258 24.6859C7.14258 27.3073 9.27537 29.4401 11.8968 29.4401ZM11.8968 21.6088H19.6139C21.3105 21.6088 22.691 22.9892 22.691 24.6859C22.691 26.3826 21.3105 27.7629 19.6139 27.7629H11.8968C10.2002 27.7629 8.81977 26.3826 8.81977 24.6859C8.81977 22.9892 10.2002 21.6088 11.8968 21.6088Z" fill="black"/>
<path d="M12.2231 26.9891C13.495 26.9891 14.5262 25.9579 14.5262 24.6859C14.5262 23.414 13.495 22.3828 12.2231 22.3828C10.9511 22.3828 9.91992 23.414 9.91992 24.6859C9.91992 25.9579 10.9511 26.9891 12.2231 26.9891Z" fill="black"/>
<path d="M19.2875 26.9891C20.5595 26.9891 21.5906 25.9579 21.5906 24.6859C21.5906 23.414 20.5595 22.3828 19.2875 22.3828C18.0155 22.3828 16.9844 23.414 16.9844 24.6859C16.9844 25.9579 18.0155 26.9891 19.2875 26.9891Z" fill="black"/>
</svg>
