<svg width="32" height="32" viewBox="0 0 32 32" fill="none" xmlns="http://www.w3.org/2000/svg">
<path d="M16.36 4.5C10.112 4.5 5 9.612 5 15.86C5 22.108 10.112 27.22 16.36 27.22C22.608 27.22 27.72 22.108 27.72 15.86C27.72 9.612 22.608 4.5 16.36 4.5ZM16.36 24.948C11.3616 24.948 7.272 20.8584 7.272 15.86C7.272 10.8616 11.3616 6.772 16.36 6.772C21.3584 6.772 25.448 10.8616 25.448 15.86C25.448 20.8584 21.3584 24.948 16.36 24.948Z" fill="black"/>
<path d="M12.9517 16.9961H10.6797V20.4041H12.9517V16.9961Z" fill="black"/>
<path d="M17.4966 10.1799H15.2246V13.5879H17.4966V10.1799Z" fill="black"/>
<path d="M22.0396 16.9961H19.7676V20.4041H22.0396V16.9961Z" fill="black"/>
</svg>
