<svg width="32" height="32" viewBox="0 0 32 32" fill="none" xmlns="http://www.w3.org/2000/svg">
<path d="M23.137 5.19217C23.1065 5.16953 23.0745 5.14984 23.0414 5.13088C21.0126 3.81209 18.5954 3.04248 16.0005 3.04248C13.412 3.04248 11.0004 3.80842 8.97469 5.12127C8.93166 5.14477 8.89062 5.17049 8.85191 5.20006C5.35434 7.52291 3.04297 11.496 3.04297 16.0001C3.04297 23.145 8.85578 28.9578 16.0005 28.9578C23.1455 28.9578 28.9583 23.145 28.9583 16.0001C28.9583 11.4907 26.6414 7.51387 23.137 5.19217ZM16.0005 27.0378C9.91422 27.0378 4.96297 22.0864 4.96297 16.0001C4.96297 12.2398 6.85437 8.91441 9.73443 6.92061H22.2666C25.1467 8.91441 27.0383 12.2398 27.0383 16.0001C27.0383 22.0864 22.0867 27.0378 16.0005 27.0378Z" fill="black"/>
<path d="M10.2405 12.6929C8.41703 12.6929 6.93359 14.1765 6.93359 15.9999C6.93359 17.8233 8.41703 19.3068 10.2405 19.3068C12.0639 19.3068 13.5473 17.8233 13.5473 15.9999C13.5473 14.1765 12.0639 12.6929 10.2405 12.6929Z" fill="black"/>
<path d="M18.4531 15.9999C18.4531 17.8233 19.9366 19.3068 21.76 19.3068C23.5834 19.3068 25.0669 17.8233 25.0669 15.9999C25.0669 14.1765 23.5834 12.6929 21.76 12.6929C19.9366 12.6929 18.4531 14.1765 18.4531 15.9999Z" fill="black"/>
<path d="M11.8407 10.7444C12.5758 10.7444 13.1716 10.1485 13.1716 9.41346C13.1716 8.6784 12.5758 8.08252 11.8407 8.08252C11.1056 8.08252 10.5098 8.6784 10.5098 9.41346C10.5098 10.1485 11.1056 10.7444 11.8407 10.7444Z" fill="black"/>
<path d="M16.0009 10.7444C16.7359 10.7444 17.3318 10.1485 17.3318 9.41346C17.3318 8.6784 16.7359 8.08252 16.0009 8.08252C15.2658 8.08252 14.6699 8.6784 14.6699 9.41346C14.6699 10.1485 15.2658 10.7444 16.0009 10.7444Z" fill="black"/>
<path d="M16.0009 14.9046C16.7359 14.9046 17.3318 14.3087 17.3318 13.5736C17.3318 12.8386 16.7359 12.2427 16.0009 12.2427C15.2658 12.2427 14.6699 12.8386 14.6699 13.5736C14.6699 14.3087 15.2658 14.9046 16.0009 14.9046Z" fill="black"/>
<path d="M20.161 10.7444C20.8961 10.7444 21.492 10.1485 21.492 9.41346C21.492 8.6784 20.8961 8.08252 20.161 8.08252C19.426 8.08252 18.8301 8.6784 18.8301 9.41346C18.8301 10.1485 19.426 10.7444 20.161 10.7444Z" fill="black"/>
<path d="M11.2001 23.8645C11.9351 23.8645 12.531 23.2686 12.531 22.5336C12.531 21.7985 11.9351 21.2026 11.2001 21.2026C10.465 21.2026 9.86914 21.7985 9.86914 22.5336C9.86914 23.2686 10.465 23.8645 11.2001 23.8645Z" fill="black"/>
<path d="M15.9998 20.7544C15.0188 20.7544 14.2207 21.5525 14.2207 22.5335C14.2207 23.5146 15.0188 24.3127 15.9998 24.3127C16.9807 24.3127 17.7788 23.5146 17.7788 22.5335C17.7788 21.5525 16.9807 20.7544 15.9998 20.7544Z" fill="black"/>
<path d="M20.7997 23.8645C21.5347 23.8645 22.1306 23.2686 22.1306 22.5336C22.1306 21.7985 21.5347 21.2026 20.7997 21.2026C20.0646 21.2026 19.4688 21.7985 19.4688 22.5336C19.4688 23.2686 20.0646 23.8645 20.7997 23.8645Z" fill="black"/>
</svg>
