<svg width="102" height="14" viewBox="0 0 102 14" fill="none" xmlns="http://www.w3.org/2000/svg">
<path d="M8.00985 2.04754L9.03651 4.10087C9.17651 4.38671 9.54985 4.66087 9.86485 4.71337L11.7257 5.02254C12.9157 5.22087 13.1957 6.08421 12.3382 6.93587L10.8915 8.38254C10.6465 8.62754 10.5123 9.10004 10.5882 9.43837L11.0023 11.2292C11.329 12.6467 10.5765 13.195 9.32235 12.4542L7.57818 11.4217C7.26318 11.235 6.74401 11.235 6.42318 11.4217L4.67901 12.4542C3.43068 13.195 2.67235 12.6409 2.99901 11.2292L3.41318 9.43837C3.48901 9.10004 3.35485 8.62754 3.10985 8.38254L1.66318 6.93587C0.811513 6.08421 1.08568 5.22087 2.27568 5.02254L4.13651 4.71337C4.44568 4.66087 4.81901 4.38671 4.95901 4.10087L5.98568 2.04754C6.54568 0.933372 7.45568 0.933372 8.00985 2.04754Z" fill="#FFC107"/>
<path d="M30.0098 2.04754L31.0365 4.10087C31.1765 4.38671 31.5498 4.66087 31.8648 4.71337L33.7257 5.02254C34.9157 5.22087 35.1957 6.08421 34.3382 6.93587L32.8915 8.38254C32.6465 8.62754 32.5123 9.10004 32.5882 9.43837L33.0023 11.2292C33.329 12.6467 32.5765 13.195 31.3223 12.4542L29.5782 11.4217C29.2632 11.235 28.744 11.235 28.4232 11.4217L26.679 12.4542C25.4307 13.195 24.6723 12.6409 24.999 11.2292L25.4132 9.43837C25.489 9.10004 25.3548 8.62754 25.1098 8.38254L23.6632 6.93587C22.8115 6.08421 23.0857 5.22087 24.2757 5.02254L26.1365 4.71337C26.4457 4.66087 26.819 4.38671 26.959 4.10087L27.9857 2.04754C28.5457 0.933372 29.4557 0.933372 30.0098 2.04754Z" fill="#FFC107"/>
<path d="M52.0098 2.04754L53.0365 4.10087C53.1765 4.38671 53.5498 4.66087 53.8648 4.71337L55.7257 5.02254C56.9157 5.22087 57.1957 6.08421 56.3382 6.93587L54.8915 8.38254C54.6465 8.62754 54.5123 9.10004 54.5882 9.43837L55.0023 11.2292C55.329 12.6467 54.5765 13.195 53.3223 12.4542L51.5782 11.4217C51.2632 11.235 50.744 11.235 50.4232 11.4217L48.679 12.4542C47.4307 13.195 46.6723 12.6409 46.999 11.2292L47.4132 9.43837C47.489 9.10004 47.3548 8.62754 47.1098 8.38254L45.6632 6.93587C44.8115 6.08421 45.0857 5.22087 46.2757 5.02254L48.1365 4.71337C48.4457 4.66087 48.819 4.38671 48.959 4.10087L49.9857 2.04754C50.5457 0.933372 51.4557 0.933372 52.0098 2.04754Z" fill="#FFC107"/>
<path d="M74.0098 2.04754L75.0365 4.10087C75.1765 4.38671 75.5498 4.66087 75.8648 4.71337L77.7257 5.02254C78.9157 5.22087 79.1957 6.08421 78.3382 6.93587L76.8915 8.38254C76.6465 8.62754 76.5123 9.10004 76.5882 9.43837L77.0023 11.2292C77.329 12.6467 76.5765 13.195 75.3223 12.4542L73.5782 11.4217C73.2632 11.235 72.744 11.235 72.4232 11.4217L70.679 12.4542C69.4307 13.195 68.6723 12.6409 68.999 11.2292L69.4132 9.43837C69.489 9.10004 69.3548 8.62754 69.1098 8.38254L67.6632 6.93587C66.8115 6.08421 67.0857 5.22087 68.2757 5.02254L70.1365 4.71337C70.4457 4.66087 70.819 4.38671 70.959 4.10087L71.9857 2.04754C72.5457 0.933372 73.4557 0.933372 74.0098 2.04754Z" fill="#FFC107"/>
<path d="M96.0098 2.04754L97.0365 4.10087C97.1765 4.38671 97.5498 4.66087 97.8648 4.71337L99.7257 5.02254C100.916 5.22087 101.196 6.08421 100.338 6.93587L98.8915 8.38254C98.6465 8.62754 98.5123 9.10004 98.5882 9.43837L99.0023 11.2292C99.329 12.6467 98.5765 13.195 97.3223 12.4542L95.5782 11.4217C95.2632 11.235 94.744 11.235 94.4232 11.4217L92.679 12.4542C91.4307 13.195 90.6723 12.6409 90.999 11.2292L91.4132 9.43837C91.489 9.10004 91.3548 8.62754 91.1098 8.38254L89.6632 6.93587C88.8115 6.08421 89.0857 5.22087 90.2757 5.02254L92.1365 4.71337C92.4457 4.66087 92.819 4.38671 92.959 4.10087L93.9857 2.04754C94.5457 0.933372 95.4557 0.933372 96.0098 2.04754Z" fill="#EBEBEB"/>
</svg>
