<svg width="46" height="46" viewBox="0 0 46 46" fill="none" xmlns="http://www.w3.org/2000/svg">
<path d="M36.0571 37.5189C35.2163 37.5189 34.3717 37.5189 33.5309 37.5189C31.5122 37.5189 29.4935 37.5189 27.4749 37.5189C25.0416 37.5189 22.6084 37.5189 20.1751 37.5189C18.0906 37.5189 16.0022 37.5189 13.9177 37.5189C12.9413 37.5189 11.961 37.5266 10.9846 37.5189C10.8684 37.5189 10.7521 37.5111 10.6398 37.4995C10.7444 37.515 10.8451 37.5266 10.9497 37.5421C10.7056 37.5111 10.4732 37.4452 10.2446 37.3523C10.3375 37.391 10.4305 37.4298 10.5235 37.4685C10.384 37.4065 10.2446 37.3329 10.1167 37.2476C10.0818 37.2244 10.047 37.1973 10.0121 37.174C9.91134 37.1159 10.2484 37.3755 10.1051 37.2476C10.047 37.1973 9.98883 37.1469 9.93459 37.0927C9.88034 37.0384 9.82997 36.9803 9.7796 36.9222C9.67112 36.8021 9.86872 37.0384 9.86484 37.0384C9.84547 37.0384 9.79898 36.9493 9.79123 36.9338C9.70211 36.7982 9.62462 36.6548 9.55875 36.5076C9.5975 36.6006 9.63624 36.6936 9.67499 36.7866C9.57812 36.558 9.51613 36.3255 9.48513 36.0814C9.50063 36.186 9.51226 36.2867 9.52776 36.3914C9.49288 36.0853 9.50838 35.7714 9.50838 35.4615C9.50838 34.8609 9.50838 34.2603 9.50838 33.6636C9.50838 31.6527 9.50838 29.6457 9.50838 27.6348C9.50838 25.1899 9.50838 22.745 9.50838 20.3002C9.50838 18.1924 9.50838 16.0885 9.50838 13.9807C9.50838 12.9849 9.50451 11.993 9.50838 10.9973C9.50838 10.881 9.51613 10.7648 9.52776 10.6486C9.51226 10.7532 9.50063 10.8539 9.48513 10.9585C9.51613 10.7144 9.582 10.482 9.67499 10.2534C9.63624 10.3463 9.5975 10.4393 9.55875 10.5323C9.62074 10.3928 9.69436 10.2533 9.7796 10.1255C9.80285 10.0906 9.82997 10.0557 9.85322 10.0209C9.91134 9.92013 9.65174 10.2572 9.7796 10.1139C9.82997 10.0557 9.88034 9.99763 9.93459 9.94338C9.98883 9.88914 10.047 9.83877 10.1051 9.7884C10.2252 9.67991 9.98883 9.87751 9.98883 9.87364C9.98883 9.85427 10.0779 9.80777 10.0934 9.80002C10.2291 9.71091 10.3724 9.63341 10.5197 9.56755C10.4267 9.60629 10.3337 9.64504 10.2407 9.68378C10.4693 9.58692 10.7018 9.52493 10.9459 9.49393C10.8412 9.50943 10.7405 9.52105 10.6359 9.53655C10.942 9.50168 11.2558 9.51718 11.5658 9.51718C12.1664 9.51718 12.7669 9.51718 13.3636 9.51718C15.3745 9.51718 17.3816 9.51718 19.3925 9.51718C21.8373 9.51718 24.2822 9.51718 26.7271 9.51718C28.8349 9.51718 30.9388 9.51718 33.0465 9.51718C34.0423 9.51718 35.0342 9.5133 36.03 9.51718C36.1462 9.51718 36.2625 9.52493 36.3787 9.53655C36.2741 9.52105 36.1733 9.50943 36.0687 9.49393C36.3128 9.52493 36.5453 9.59079 36.7739 9.68378C36.6809 9.64504 36.5879 9.60629 36.4949 9.56755C36.6344 9.62954 36.7739 9.70316 36.9018 9.7884C36.9366 9.81165 36.9715 9.83877 37.0064 9.86202C37.1071 9.92014 36.77 9.66054 36.9134 9.7884C36.9715 9.83877 37.0296 9.88914 37.0839 9.94338C37.1381 9.99763 37.1885 10.0557 37.2388 10.1139C37.3473 10.234 37.1497 9.99763 37.1536 9.99763C37.173 9.99763 37.2195 10.0867 37.2272 10.1022C37.3163 10.2379 37.3938 10.3812 37.4597 10.5284C37.421 10.4355 37.3822 10.3425 37.3435 10.2495C37.4403 10.4781 37.5023 10.7106 37.5333 10.9547C37.5178 10.85 37.5062 10.7493 37.4907 10.6447C37.5256 10.9508 37.5101 11.2646 37.5101 11.5746C37.5101 12.1751 37.5101 12.7757 37.5101 13.3724C37.5101 15.3833 37.5101 17.3904 37.5101 19.4013C37.5101 21.8461 37.5101 24.291 37.5101 26.7359C37.5101 28.8437 37.5101 30.9476 37.5101 33.0553C37.5101 34.0511 37.5139 35.043 37.5101 36.0388C37.5101 36.155 37.5023 36.2712 37.4907 36.3875C37.5062 36.2829 37.5178 36.1821 37.5333 36.0775C37.5023 36.3216 37.4365 36.5541 37.3435 36.7827C37.3822 36.6897 37.421 36.5967 37.4597 36.5037C37.3977 36.6432 37.3241 36.7827 37.2388 36.9106C37.2156 36.9454 37.1885 36.9803 37.1652 37.0152C37.1071 37.1159 37.3667 36.7788 37.2388 36.9222C37.1885 36.9803 37.1381 37.0384 37.0839 37.0927C37.0296 37.1469 36.9715 37.1973 36.9134 37.2476C36.7933 37.3561 37.0296 37.1585 37.0296 37.1624C37.0296 37.1818 36.9405 37.2283 36.925 37.236C36.7894 37.3251 36.646 37.4026 36.4988 37.4685C36.5918 37.4298 36.6848 37.391 36.7778 37.3523C36.5492 37.4491 36.3167 37.5111 36.0726 37.5421C36.1772 37.5266 36.278 37.515 36.3826 37.4995C36.2741 37.5111 36.1656 37.515 36.0571 37.5189C35.4488 37.5266 34.8676 38.0497 34.8947 38.6812C34.9218 39.3051 35.4062 39.8514 36.0571 39.8436C37.3241 39.832 38.44 39.2082 39.1723 38.1892C39.6179 37.5731 39.831 36.7904 39.8348 36.0388C39.8348 35.6862 39.8348 35.3375 39.8348 34.9849C39.8348 34.21 39.8348 33.4389 39.8348 32.664C39.8348 31.583 39.8348 30.4981 39.8348 29.4171C39.8348 28.1578 39.8348 26.8947 39.8348 25.6355C39.8348 24.3065 39.8348 22.9736 39.8348 21.6447C39.8348 20.3777 39.8348 19.1068 39.8348 17.8398C39.8348 16.7472 39.8348 15.6545 39.8348 14.5619C39.8348 13.7599 39.8348 12.9617 39.8348 12.1596C39.8348 11.7799 39.8348 11.4002 39.8348 11.0166C39.831 9.10647 38.4284 7.48302 36.5337 7.23117C36.1423 7.17692 35.7549 7.18855 35.3635 7.18855C34.6777 7.18855 33.9919 7.18855 33.3061 7.18855C32.291 7.18855 31.2759 7.18855 30.2607 7.18855C29.0325 7.18855 27.8081 7.18855 26.5798 7.18855C25.2547 7.18855 23.9257 7.18855 22.6006 7.18855C21.3065 7.18855 20.0163 7.18855 18.7222 7.18855C17.5714 7.18855 16.4207 7.18855 15.2699 7.18855C14.3904 7.18855 13.5147 7.18855 12.6352 7.18855C12.1431 7.18855 11.651 7.18855 11.159 7.18855C11.0582 7.18855 10.9575 7.18855 10.8567 7.19242C9.60137 7.24279 8.48936 7.88985 7.79194 8.92824C7.29986 9.66054 7.1875 10.5052 7.1875 11.3576C7.1875 11.9427 7.1875 12.5316 7.1875 13.1167C7.1875 14.0621 7.1875 15.0075 7.1875 15.9529C7.1875 17.1463 7.1875 18.3396 7.1875 19.533C7.1875 20.8426 7.1875 22.1522 7.1875 23.458C7.1875 24.7676 7.1875 26.0772 7.1875 27.3907C7.1875 28.5879 7.1875 29.7852 7.1875 30.9863C7.1875 31.9395 7.1875 32.8965 7.1875 33.8496C7.1875 34.4502 7.1875 35.0469 7.1875 35.6474C7.1875 36.465 7.28049 37.2554 7.71057 37.9799C8.34988 39.061 9.46189 39.7119 10.6979 39.832C10.8451 39.8475 10.9885 39.8475 11.1357 39.8475C11.6162 39.8475 12.0966 39.8475 12.5771 39.8475C13.445 39.8475 14.3168 39.8475 15.1847 39.8475C16.3315 39.8475 17.4745 39.8475 18.6214 39.8475C19.9117 39.8475 21.2019 39.8475 22.4921 39.8475C23.8211 39.8475 25.1462 39.8475 26.4752 39.8475C27.7073 39.8475 28.9395 39.8475 30.1716 39.8475C31.1945 39.8475 32.2174 39.8475 33.2403 39.8475C33.9377 39.8475 34.6351 39.8475 35.3326 39.8475C35.5766 39.8475 35.8207 39.8475 36.0687 39.8475C36.677 39.8475 37.2582 39.3128 37.2311 38.6851C37.1924 38.0497 36.708 37.5189 36.0571 37.5189Z" fill="black"/>
<path d="M32.6747 23.516C32.6747 23.9849 32.6437 24.4498 32.5817 24.9148C32.5972 24.8102 32.6089 24.7094 32.6244 24.6048C32.5004 25.5037 32.2601 26.3794 31.9114 27.2163C31.9502 27.1233 31.9889 27.0303 32.0277 26.9373C31.8262 27.41 31.5937 27.8633 31.3302 28.3012C31.1946 28.5259 31.0474 28.7429 30.8924 28.956C30.8575 29.0025 30.8227 29.0528 30.7878 29.0993C30.7762 29.1187 30.7413 29.1729 30.7258 29.1807C30.7064 29.1884 30.9002 28.9598 30.8304 29.0451C30.7452 29.1497 30.6599 29.2582 30.5747 29.3589C30.2492 29.7464 29.8928 30.1067 29.5131 30.4438C29.4162 30.5291 29.3232 30.6104 29.2225 30.6879C29.176 30.7267 29.1295 30.7615 29.083 30.8003C28.9047 30.9436 29.3 30.6375 29.1178 30.7732C28.9086 30.9281 28.6916 31.0792 28.4708 31.2226C27.9826 31.5326 27.4673 31.8038 26.9326 32.0285C27.0256 31.9898 27.1186 31.951 27.2115 31.9123C26.3746 32.261 25.499 32.5012 24.6001 32.6252C24.7047 32.6097 24.8054 32.5981 24.91 32.5826C23.984 32.7066 23.0425 32.7066 22.1165 32.5826C22.2211 32.5981 22.3218 32.6097 22.4264 32.6252C21.5275 32.5012 20.6519 32.261 19.8149 31.9123C19.9079 31.951 20.0009 31.9898 20.0939 32.0285C19.6212 31.827 19.1679 31.5946 18.7301 31.3311C18.5053 31.1955 18.2884 31.0482 18.0753 30.8933C18.0288 30.8584 17.9784 30.8235 17.9319 30.7887C17.9125 30.777 17.8583 30.7422 17.8505 30.7267C17.8428 30.7073 18.0714 30.901 17.9861 30.8313C17.8815 30.746 17.773 30.6608 17.6723 30.5755C17.2848 30.2501 16.9245 29.8936 16.5874 29.5139C16.5022 29.417 16.4208 29.3241 16.3433 29.2233C16.3046 29.1768 16.2697 29.1303 16.2309 29.0838C16.0876 28.9056 16.3937 29.3008 16.2581 29.1187C16.1031 28.9095 15.952 28.6925 15.8086 28.4716C15.4986 27.9834 15.2274 27.4681 15.0027 26.9334C15.0414 27.0264 15.0802 27.1194 15.1189 27.2124C14.7702 26.3755 14.53 25.4998 14.406 24.6009C14.4215 24.7055 14.4331 24.8063 14.4486 24.9109C14.3246 23.9849 14.3246 23.0433 14.4486 22.1173C14.4331 22.2219 14.4215 22.3227 14.406 22.4273C14.53 21.5284 14.7702 20.6527 15.1189 19.8158C15.0802 19.9088 15.0414 20.0018 15.0027 20.0948C15.2042 19.6221 15.4367 19.1687 15.7001 18.7309C15.8357 18.5062 15.983 18.2892 16.138 18.0761C16.1728 18.0296 16.2077 17.9792 16.2426 17.9327C16.2542 17.9134 16.2891 17.8591 16.3046 17.8514C16.3239 17.8436 16.1302 18.0722 16.2 17.987C16.2852 17.8824 16.3704 17.7739 16.4557 17.6732C16.7811 17.2857 17.1376 16.9254 17.5173 16.5883C17.6142 16.503 17.7072 16.4217 17.8079 16.3442C17.8544 16.3054 17.9009 16.2705 17.9474 16.2318C18.1256 16.0884 17.7304 16.3945 17.9125 16.2589C18.1217 16.1039 18.3387 15.9528 18.5596 15.8095C19.0478 15.4995 19.5631 15.2283 20.0978 15.0036C20.0048 15.0423 19.9118 15.081 19.8188 15.1198C20.6557 14.7711 21.5314 14.5309 22.4303 14.4069C22.3257 14.4224 22.2249 14.434 22.1203 14.4495C23.0464 14.3255 23.9879 14.3255 24.9139 14.4495C24.8093 14.434 24.7086 14.4224 24.6039 14.4069C25.5029 14.5309 26.3785 14.7711 27.2154 15.1198C27.1224 15.081 27.0294 15.0423 26.9365 15.0036C27.4092 15.205 27.8625 15.4375 28.3003 15.701C28.525 15.8366 28.742 15.9838 28.9551 16.1388C29.0016 16.1737 29.052 16.2086 29.0985 16.2434C29.1178 16.255 29.1721 16.2899 29.1798 16.3054C29.1876 16.3248 28.959 16.1311 29.0442 16.2008C29.1488 16.286 29.2573 16.3713 29.3581 16.4565C29.7455 16.782 30.1059 17.1385 30.443 17.5182C30.5282 17.615 30.6096 17.708 30.6871 17.8088C30.7258 17.8553 30.7607 17.9018 30.7994 17.9482C30.9428 18.1265 30.6367 17.7313 30.7723 17.9134C30.9273 18.1226 31.0784 18.3396 31.2218 18.5604C31.5317 19.0486 31.8029 19.564 32.0277 20.0986C31.9889 20.0057 31.9502 19.9127 31.9114 19.8197C32.2601 20.6566 32.5004 21.5322 32.6244 22.4312C32.6089 22.3265 32.5972 22.2258 32.5817 22.1212C32.6437 22.5823 32.6747 23.0472 32.6747 23.516C32.6747 24.1243 33.2094 24.7055 33.8371 24.6784C34.4648 24.6513 34.9995 24.167 34.9995 23.516C34.9917 21.1874 34.2827 18.8433 32.9304 16.9409C31.5433 14.9958 29.6409 13.5312 27.3975 12.702C25.1696 11.8806 22.6434 11.8109 20.3651 12.4618C18.176 13.0856 16.1535 14.3797 14.7082 16.1427C13.1623 18.0219 12.244 20.2769 12.0541 22.7024C11.872 25.0388 12.4571 27.4488 13.6737 29.4519C14.8477 31.3853 16.6145 33.001 18.6836 33.9348C19.8382 34.4579 21.0161 34.7795 22.2753 34.9306C23.4726 35.074 24.6892 34.9965 25.8709 34.7601C28.1105 34.3107 30.2182 33.125 31.7952 31.4783C33.3799 29.8239 34.4919 27.6774 34.8406 25.4068C34.9375 24.7792 34.9995 24.1515 35.0034 23.516C35.0034 22.9077 34.4687 22.3265 33.841 22.3537C33.2055 22.3808 32.6786 22.8651 32.6747 23.516Z" fill="black"/>
<path d="M20.6248 22.3538C19.7724 22.3538 18.92 22.3538 18.0676 22.3538C17.4593 22.3538 16.8781 22.8885 16.9052 23.5161C16.9323 24.1477 17.4167 24.6785 18.0676 24.6785C18.92 24.6785 19.7724 24.6785 20.6248 24.6785C21.2331 24.6785 21.8143 24.1438 21.7872 23.5161C21.7601 22.8846 21.2758 22.3538 20.6248 22.3538Z" fill="black"/>
<path d="M28.9549 22.3538C28.1025 22.3538 27.2501 22.3538 26.3977 22.3538C25.7894 22.3538 25.2082 22.8885 25.2353 23.5161C25.2624 24.1477 25.7467 24.6785 26.3977 24.6785C27.2501 24.6785 28.1025 24.6785 28.9549 24.6785C29.5632 24.6785 30.1444 24.1438 30.1173 23.5161C30.0902 22.8846 29.6058 22.3538 28.9549 22.3538Z" fill="black"/>
</svg>
