<svg width="46" height="46" viewBox="0 0 46 46" fill="none" xmlns="http://www.w3.org/2000/svg">
<path d="M17.9941 22.2333C19.9163 22.2333 21.4746 20.6751 21.4746 18.7529C21.4746 16.8307 19.9163 15.2725 17.9941 15.2725C16.0719 15.2725 14.5137 16.8307 14.5137 18.7529C14.5137 20.6751 16.0719 22.2333 17.9941 22.2333Z" fill="black"/>
<path d="M29.041 22.2333C30.9632 22.2333 32.5214 20.6751 32.5214 18.7529C32.5214 16.8307 30.9632 15.2725 29.041 15.2725C27.1188 15.2725 25.5605 16.8307 25.5605 18.7529C25.5605 20.6751 27.1188 22.2333 29.041 22.2333Z" fill="black"/>
<path d="M23.5176 35.061C25.4397 35.061 26.998 33.5027 26.998 31.5805C26.998 29.6583 25.4397 28.1001 23.5176 28.1001C21.5954 28.1001 20.0371 29.6583 20.0371 31.5805C20.0371 33.5027 21.5954 35.061 23.5176 35.061Z" fill="black"/>
<path d="M15.4467 29.6954C16.5105 29.6954 17.3758 28.8301 17.3758 27.7663C17.3758 26.7027 16.5105 25.8374 15.4467 25.8374C14.3829 25.8374 13.5176 26.7027 13.5176 27.7663C13.5176 28.8301 14.3829 29.6954 15.4467 29.6954Z" fill="black"/>
<path d="M29.6582 27.7663C29.6582 28.8301 30.5237 29.6954 31.5873 29.6954C32.6509 29.6954 33.5164 28.8301 33.5164 27.7663C33.5164 26.7027 32.6509 25.8374 31.5873 25.8374C30.5237 25.8374 29.6582 26.7027 29.6582 27.7663Z" fill="black"/>
<path d="M23.5175 39.8475C32.5222 39.8475 39.8477 32.5219 39.8477 23.5175C39.8477 14.5131 32.5222 7.1875 23.5175 7.1875C14.5131 7.1875 7.1875 14.5131 7.1875 23.5175C7.1875 32.5219 14.5131 39.8475 23.5175 39.8475ZM23.5175 10.0636C30.9362 10.0636 36.9716 16.099 36.9716 23.5175C36.9716 30.936 30.9362 36.9714 23.5175 36.9714C16.099 36.9714 10.0636 30.936 10.0636 23.5175C10.0636 16.099 16.099 10.0636 23.5175 10.0636Z" fill="black"/>
</svg>
