<svg width="46" height="46" viewBox="0 0 46 46" fill="none" xmlns="http://www.w3.org/2000/svg">
<path d="M37.217 39.8475H9.81796C8.36875 39.8475 7.1875 38.6662 7.1875 37.217V9.81796C7.1875 8.36875 8.36875 7.1875 9.81796 7.1875H37.217C38.6662 7.1875 39.8475 8.36875 39.8475 9.81796V37.217C39.8475 38.67 38.67 39.8475 37.217 39.8475ZM9.81796 9.45189C9.61794 9.45189 9.45189 9.61417 9.45189 9.81796V37.217C9.45189 37.4171 9.61417 37.5831 9.81796 37.5831H37.217C37.4171 37.5831 37.5831 37.4208 37.5831 37.217V9.81796C37.5831 9.61794 37.4208 9.45189 37.217 9.45189H9.81796Z" fill="black"/>
<path d="M23.5177 36.217C21.8043 36.217 20.14 35.8811 18.5738 35.2169C17.0604 34.5753 15.7018 33.662 14.5356 32.4958C13.3694 31.3297 12.4524 29.971 11.8146 28.4577C11.1503 26.8915 10.8145 25.2271 10.8145 23.5138C10.8145 21.8004 11.1503 20.136 11.8146 18.5698C12.4561 17.0565 13.3694 15.6978 14.5356 14.5317C15.7018 13.3655 17.0604 12.4485 18.5738 11.8107C20.14 11.1464 21.8043 10.8105 23.5177 10.8105C25.231 10.8105 26.8954 11.1464 28.4616 11.8107C29.9749 12.4522 31.3336 13.3655 32.4997 14.5317C33.6659 15.6978 34.583 17.0565 35.2208 18.5698C35.885 20.136 36.2209 21.8004 36.2209 23.5138C36.2209 25.2271 35.885 26.8915 35.2208 28.4577C34.5792 29.971 33.6659 31.3297 32.4997 32.4958C31.3336 33.662 29.9749 34.5791 28.4616 35.2169C26.8954 35.8811 25.231 36.217 23.5177 36.217ZM23.5177 13.0825C17.7623 13.0825 13.0826 17.766 13.0826 23.5175C13.0826 29.2728 17.7661 33.9526 23.5177 33.9526C29.273 33.9526 33.9527 29.2691 33.9527 23.5175C33.9527 17.7622 29.273 13.0825 23.5177 13.0825Z" fill="black"/>
<path d="M20.1669 22.3853H17.0156V24.6496H20.1669V22.3853Z" fill="black"/>
<path d="M30.0204 22.3853H26.8691V24.6496H30.0204V22.3853Z" fill="black"/>
</svg>
