<svg width="46" height="46" viewBox="0 0 46 46" fill="none" xmlns="http://www.w3.org/2000/svg">
<path d="M13.5755 24.1036C15.3732 24.1036 16.8306 22.6462 16.8306 20.8484C16.8306 19.0506 15.3732 17.5933 13.5755 17.5933C11.7777 17.5933 10.3203 19.0506 10.3203 20.8484C10.3203 22.6462 11.7777 24.1036 13.5755 24.1036Z" fill="black"/>
<path d="M23.0012 24.1036C24.799 24.1036 26.2564 22.6462 26.2564 20.8484C26.2564 19.0506 24.799 17.5933 23.0012 17.5933C21.2035 17.5933 19.7461 19.0506 19.7461 20.8484C19.7461 22.6462 21.2035 24.1036 23.0012 24.1036Z" fill="black"/>
<path d="M32.4269 17.593C30.6323 17.593 29.1719 19.0534 29.1719 20.8483C29.1719 22.6431 30.6323 24.1035 32.4269 24.1035C34.222 24.1035 35.6824 22.6431 35.6824 20.8483C35.6824 19.0534 34.222 17.593 32.4269 17.593Z" fill="black"/>
<path d="M18.2887 25.6675C16.4936 25.6675 15.0332 27.1279 15.0332 28.9227C15.0332 30.7176 16.4936 32.178 18.2887 32.178C20.0833 32.178 21.5437 30.7176 21.5437 28.9227C21.5437 27.1279 20.0833 25.6675 18.2887 25.6675Z" fill="black"/>
<path d="M27.7145 25.6675C25.9194 25.6675 24.459 27.1279 24.459 28.9227C24.459 30.7176 25.9194 32.178 27.7145 32.178C29.5091 32.178 30.9695 30.7176 30.9695 28.9227C30.9695 27.1279 29.5091 25.6675 27.7145 25.6675Z" fill="black"/>
<path d="M18.2896 16.197C19.286 16.197 20.0964 15.3864 20.0964 14.39C20.0964 13.3936 19.286 12.583 18.2896 12.583C17.2933 12.583 16.4824 13.3936 16.4824 14.39C16.4824 15.3864 17.2933 16.197 18.2896 16.197Z" fill="black"/>
<path d="M27.7135 16.197C28.7098 16.197 29.5202 15.3864 29.5202 14.39C29.5202 13.3936 28.7098 12.583 27.7135 12.583C26.7171 12.583 25.9062 13.3936 25.9062 14.39C25.9062 15.3864 26.7171 16.197 27.7135 16.197Z" fill="black"/>
<path d="M32.0112 8.46021H13.989C11.7802 8.46021 9.76772 9.55338 8.60559 11.3844C6.56524 14.599 5.67758 18.3228 6.0401 22.1528C6.81725 30.3724 13.6252 36.9714 21.8751 37.5029C22.2574 37.5276 22.6374 37.5397 23.0161 37.5397C27.3641 37.5397 31.4609 35.9261 34.654 32.9321C38.0775 29.7222 40.041 25.1907 40.041 20.4995C40.041 17.2795 39.1367 14.1433 37.4261 11.43C36.2541 9.57045 34.2295 8.46021 32.0112 8.46021ZM32.7664 30.9187C29.8577 33.6461 26.0568 35.0068 22.0525 34.7487C15.1413 34.3035 9.43889 28.7768 8.78753 21.893C8.4834 18.6784 9.22641 15.5561 10.9357 12.8637C11.5794 11.85 12.7492 11.2202 13.989 11.2202H32.0112C33.2762 11.2202 34.4276 11.8489 35.0911 12.9019C36.5236 15.174 37.281 17.8013 37.281 20.4995C37.281 24.4886 35.6778 28.1888 32.7664 30.9187Z" fill="black"/>
</svg>
