<svg width="46" height="46" viewBox="0 0 46 46" fill="none" xmlns="http://www.w3.org/2000/svg">
<path d="M16.6517 27.9053C12.3379 27.9053 8.82812 31.415 8.82812 35.7289C8.82812 40.0427 12.3379 43.5525 16.6517 43.5525H29.3511C33.665 43.5525 37.1747 40.0427 37.1747 35.7289C37.1747 31.415 33.665 27.9053 29.3511 27.9053H16.6517ZM34.4147 35.7289C34.4147 38.521 32.143 40.7925 29.3511 40.7925H16.6517C13.8598 40.7925 11.5881 38.521 11.5881 35.7289C11.5881 32.9367 13.8598 30.6653 16.6517 30.6653H29.3511C32.143 30.6653 34.4147 32.9367 34.4147 35.7289Z" fill="black"/>
<path d="M17.1885 39.5188C19.2817 39.5188 20.9786 37.822 20.9786 35.7288C20.9786 33.6356 19.2817 31.9387 17.1885 31.9387C15.0953 31.9387 13.3984 33.6356 13.3984 35.7288C13.3984 37.822 15.0953 39.5188 17.1885 39.5188Z" fill="black"/>
<path d="M28.8115 39.5188C30.9047 39.5188 32.6016 37.822 32.6016 35.7288C32.6016 33.6356 30.9047 31.9387 28.8115 31.9387C26.7184 31.9387 25.0215 33.6356 25.0215 35.7288C25.0215 37.822 26.7184 39.5188 28.8115 39.5188Z" fill="black"/>
<path d="M15.1812 15.7012C16.6924 15.7012 17.9214 14.4721 17.9214 12.9612C17.9214 11.4503 16.6924 10.2212 15.1812 10.2212C13.6705 10.2212 12.4414 11.4503 12.4414 12.9612C12.4414 14.4721 13.6705 15.7012 15.1812 15.7012Z" fill="black"/>
<path d="M22.9996 15.7012C24.5107 15.7012 25.7398 14.4721 25.7398 12.9612C25.7398 11.4503 24.5107 10.2212 22.9996 10.2212C21.4888 10.2212 20.2598 11.4503 20.2598 12.9612C20.2598 14.4721 21.4888 15.7012 22.9996 15.7012Z" fill="black"/>
<path d="M30.8199 15.7012C32.331 15.7012 33.5601 14.4721 33.5601 12.9612C33.5601 11.4503 32.331 10.2212 30.8199 10.2212C29.3091 10.2212 28.0801 11.4503 28.0801 12.9612C28.0801 14.4721 29.3091 15.7012 30.8199 15.7012Z" fill="black"/>
<path d="M19.0913 16.9207C17.5806 16.9207 16.3516 18.1497 16.3516 19.6607C16.3516 21.1716 17.5806 22.4007 19.0913 22.4007C20.6025 22.4007 21.8316 21.1716 21.8316 19.6607C21.8316 18.1497 20.6025 16.9207 19.0913 16.9207Z" fill="black"/>
<path d="M26.9097 16.9207C25.399 16.9207 24.1699 18.1497 24.1699 19.6607C24.1699 21.1716 25.399 22.4007 26.9097 22.4007C28.4209 22.4007 29.6499 21.1716 29.6499 19.6607C29.6499 18.1497 28.4209 16.9207 26.9097 16.9207Z" fill="black"/>
<path d="M19.0913 9.14113C19.9399 9.14113 20.6299 8.45113 20.6299 7.60278C20.6299 6.75443 19.9399 6.06421 19.0913 6.06421C18.2427 6.06421 17.5527 6.75443 17.5527 7.60278C17.5527 8.45113 18.2427 9.14113 19.0913 9.14113Z" fill="black"/>
<path d="M26.9097 9.14113C27.7582 9.14113 28.4482 8.45113 28.4482 7.60278C28.4482 6.75443 27.7582 6.06421 26.9097 6.06421C26.0611 6.06421 25.3711 6.75443 25.3711 7.60278C25.3711 8.45113 26.0611 9.14113 26.9097 9.14113Z" fill="black"/>
<path d="M22.0513 27.0142C22.3734 27.0351 22.6941 27.0454 23.0131 27.0454C26.6809 27.0452 30.1363 25.6843 32.8299 23.1585C35.7174 20.4509 37.3737 16.6287 37.3737 12.6717C37.3737 9.95645 36.6109 7.31122 35.168 5.02133C34.1519 3.40976 32.3977 2.44775 30.4759 2.44775H15.5233C13.6096 2.44775 11.8657 3.39561 10.8577 4.98292C9.13626 7.69485 8.38786 10.8356 8.69378 14.0657C9.34919 20.9991 15.0916 26.5656 22.0513 27.0142ZM13.1882 6.4622C13.6792 5.68842 14.5741 5.20775 15.5233 5.20775H30.4759C31.4301 5.20775 32.333 5.70032 32.833 6.49319C33.9978 8.3415 34.6137 10.478 34.6137 12.6717C34.6137 15.9158 33.3096 18.9251 30.9422 21.1451C28.5762 23.3634 25.4829 24.468 22.2287 24.26C16.6081 23.8977 11.9704 19.4035 11.4412 13.8058C11.1941 11.1913 11.7979 8.65191 13.1882 6.4622Z" fill="black"/>
</svg>
