<svg width="46" height="46" viewBox="0 0 46 46" fill="none" xmlns="http://www.w3.org/2000/svg">
<path d="M22.9992 39.3333C32.0051 39.3333 39.3323 32.0063 39.3323 23.0001C39.3323 13.994 32.0051 6.66675 22.9992 6.66675C13.9932 6.66675 6.66602 13.994 6.66602 23.0001C6.66602 32.0063 13.9932 39.3333 22.9992 39.3333ZM22.9992 9.42675C30.4836 9.42675 36.5723 15.5157 36.5723 23.0001C36.5723 30.4843 30.4836 36.5733 22.9992 36.5733C15.5147 36.5733 9.42602 30.4843 9.42602 23.0001C9.42602 15.5157 15.5147 9.42675 22.9992 9.42675Z" fill="black"/>
<path d="M16.5836 27.1092C18.853 27.1092 20.6927 25.2695 20.6927 23.0001C20.6927 20.7308 18.853 18.8911 16.5836 18.8911C14.3143 18.8911 12.4746 20.7308 12.4746 23.0001C12.4746 25.2695 14.3143 27.1092 16.5836 27.1092Z" fill="black"/>
<path d="M29.4137 27.1092C31.6831 27.1092 33.5228 25.2695 33.5228 23.0001C33.5228 20.7308 31.6831 18.8911 29.4137 18.8911C27.1444 18.8911 25.3047 20.7308 25.3047 23.0001C25.3047 25.2695 27.1444 27.1092 29.4137 27.1092Z" fill="black"/>
<path d="M20.6074 17.1478C20.7871 17.3275 21.0225 17.4173 21.2579 17.4173C21.4933 17.4173 21.7287 17.3275 21.9084 17.1478L23.1044 15.9519L24.3004 17.1478C24.4801 17.3275 24.7155 17.4173 24.9509 17.4173C25.1863 17.4173 25.4217 17.3275 25.6014 17.1478C25.9608 16.7884 25.9608 16.206 25.6014 15.8469L24.4054 14.6511L25.6014 13.4552C25.9608 13.0961 25.9608 12.5137 25.6014 12.1543C25.242 11.7949 24.6598 11.7949 24.3004 12.1543L23.1044 13.3502L21.9084 12.1543C21.549 11.7949 20.9668 11.7949 20.6074 12.1543C20.248 12.5137 20.248 13.0961 20.6074 13.4552L21.8034 14.6511L20.6074 15.8469C20.248 16.206 20.248 16.7884 20.6074 17.1478Z" fill="black"/>
<path d="M25.6014 28.8523C25.242 28.4929 24.6598 28.4929 24.3004 28.8523L23.1044 30.0483L21.9084 28.8523C21.549 28.4929 20.9668 28.4929 20.6074 28.8523C20.248 29.2114 20.248 29.7941 20.6074 30.1532L21.8034 31.3492L20.6074 32.5451C20.248 32.9042 20.248 33.4869 20.6074 33.846C20.7871 34.0257 21.0225 34.1156 21.2579 34.1156C21.4933 34.1156 21.7287 34.0257 21.9084 33.846L23.1044 32.6501L24.3004 33.846C24.4801 34.0257 24.7155 34.1156 24.9509 34.1156C25.1863 34.1156 25.4217 34.0257 25.6014 33.846C25.9608 33.4869 25.9608 32.9042 25.6014 32.5451L24.4054 31.3492L25.6014 30.1532C25.9608 29.7941 25.9608 29.2114 25.6014 28.8523Z" fill="black"/>
</svg>
