<svg width="46" height="46" viewBox="0 0 46 46" fill="none" xmlns="http://www.w3.org/2000/svg">
<path d="M13.3566 7.1875C9.95775 7.1875 7.1875 9.95775 7.1875 13.3566V33.6784C7.1875 37.0772 9.95775 39.8475 13.3566 39.8475H33.6784C37.0772 39.8475 39.8475 37.0772 39.8475 33.6784V13.3566C39.8475 9.95775 37.0772 7.1875 33.6784 7.1875H13.3566ZM13.3566 9.36483H33.6784C35.9087 9.36483 37.6702 11.1263 37.6702 13.3566V33.6784C37.6702 35.9087 35.9087 37.6702 33.6784 37.6702H13.3566C11.1263 37.6702 9.36483 35.9087 9.36483 33.6784V13.3566C9.36483 11.1263 11.1263 9.36483 13.3566 9.36483ZM23.5175 12.2679C17.3174 12.2679 12.2679 17.3174 12.2679 23.5175C12.2679 29.7176 17.3174 34.7671 23.5175 34.7671C29.7176 34.7671 34.7671 29.7176 34.7671 23.5175C34.7671 17.3174 29.7176 12.2679 23.5175 12.2679ZM22.4288 14.5133V17.3484C22.4268 17.4927 22.4534 17.6359 22.5072 17.7697C22.561 17.9036 22.6409 18.0255 22.7422 18.1282C22.8435 18.2309 22.9642 18.3125 23.0973 18.3682C23.2304 18.4239 23.3732 18.4526 23.5175 18.4526C23.6618 18.4526 23.8046 18.4239 23.9377 18.3682C24.0708 18.3125 24.1915 18.2309 24.2928 18.1282C24.3941 18.0255 24.474 17.9036 24.5278 17.7697C24.5816 17.6359 24.6082 17.4927 24.6062 17.3484V14.5133C29.1123 15.0484 32.5897 18.863 32.5897 23.5175C32.5897 28.172 29.1123 31.9866 24.6062 32.5217V29.6866C24.6092 29.5408 24.5829 29.3959 24.5288 29.2604C24.4748 29.1249 24.394 29.0017 24.2914 28.8981C24.1888 28.7944 24.0665 28.7124 23.9316 28.657C23.7967 28.6015 23.652 28.5737 23.5062 28.5753C23.3622 28.5767 23.22 28.6068 23.0878 28.6636C22.9555 28.7203 22.8358 28.8028 22.7356 28.9062C22.6354 29.0095 22.5567 29.1317 22.5041 29.2657C22.4514 29.3996 22.4258 29.5427 22.4288 29.6866V32.5217C17.9227 31.9866 14.4453 28.172 14.4453 23.5175C14.4453 18.863 17.9227 15.0484 22.4288 14.5133ZM18.7999 20.6144C17.2095 20.6144 15.8968 21.927 15.8968 23.5175C15.8968 25.1079 17.2095 26.4206 18.7999 26.4206C20.3904 26.4206 21.7031 25.1079 21.7031 23.5175C21.7031 21.927 20.3904 20.6144 18.7999 20.6144ZM28.2351 20.6144C26.6446 20.6144 25.3319 21.927 25.3319 23.5175C25.3319 25.1079 26.6446 26.4206 28.2351 26.4206C29.8255 26.4206 31.1382 25.1079 31.1382 23.5175C31.1382 21.927 29.8255 20.6144 28.2351 20.6144ZM18.7999 22.7917C19.2137 22.7917 19.5257 23.1038 19.5257 23.5175C19.5257 23.9312 19.2137 24.2433 18.7999 24.2433C18.3862 24.2433 18.0742 23.9312 18.0742 23.5175C18.0742 23.1038 18.3862 22.7917 18.7999 22.7917ZM28.2351 22.7917C28.6488 22.7917 28.9608 23.1038 28.9608 23.5175C28.9608 23.9312 28.6488 24.2433 28.2351 24.2433C27.8213 24.2433 27.5093 23.9312 27.5093 23.5175C27.5093 23.1038 27.8213 22.7917 28.2351 22.7917Z" fill="black"/>
</svg>
