<svg width="46" height="46" viewBox="0 0 46 46" fill="none" xmlns="http://www.w3.org/2000/svg">
<path d="M20.4618 14.9554C21.318 14.0992 21.318 12.7109 20.4618 11.8546C19.6055 10.9984 18.2172 10.9984 17.361 11.8546C16.5047 12.7109 16.5047 14.0992 17.3609 14.9554C18.2172 15.8117 19.6055 15.8117 20.4618 14.9554Z" fill="black"/>
<path d="M26.386 15.5974C27.5969 15.5974 28.5786 14.6157 28.5786 13.4048C28.5786 12.1938 27.5969 11.2122 26.386 11.2122C25.175 11.2122 24.1934 12.1938 24.1934 13.4048C24.1934 14.6157 25.175 15.5974 26.386 15.5974Z" fill="black"/>
<path d="M22.6477 24.2761C23.8586 24.2761 24.8403 23.2944 24.8403 22.0835C24.8403 20.8725 23.8586 19.8909 22.6477 19.8909C21.4367 19.8909 20.4551 20.8725 20.4551 22.0835C20.4551 23.2944 21.4367 24.2761 22.6477 24.2761Z" fill="black"/>
<path d="M17.1878 20.646C17.8191 20.646 18.3308 20.1343 18.3308 19.503C18.3308 18.8718 17.8191 18.3601 17.1878 18.3601C16.5566 18.3601 16.0449 18.8718 16.0449 19.503C16.0449 20.1343 16.5566 20.646 17.1878 20.646Z" fill="black"/>
<path d="M28.1097 20.646C28.741 20.646 29.2527 20.1343 29.2527 19.503C29.2527 18.8718 28.741 18.3601 28.1097 18.3601C27.4785 18.3601 26.9668 18.8718 26.9668 19.503C26.9668 20.1343 27.4785 20.646 28.1097 20.646Z" fill="black"/>
<path d="M22.6478 27.9091C28.8682 27.9091 33.9287 22.8486 33.9287 16.6284C33.9287 10.4081 28.8682 5.34741 22.6478 5.34741C16.4277 5.34741 11.3672 10.4081 11.3672 16.6284C11.3672 22.8486 16.4277 27.9091 22.6478 27.9091ZM22.6478 7.75837C27.5387 7.75837 31.5178 11.7374 31.5178 16.6284C31.5178 21.5192 27.5387 25.4982 22.6478 25.4982C17.7572 25.4982 13.7781 21.5192 13.7781 16.6284C13.7781 11.7374 17.7572 7.75837 22.6478 7.75837Z" fill="black"/>
<path d="M17.1018 42.32H28.1952C31.9635 42.32 35.0294 39.2541 35.0294 35.4858C35.0294 31.7175 31.9635 28.6516 28.1952 28.6516H17.1018C13.3335 28.6516 10.2676 31.7175 10.2676 35.4858C10.2676 39.2541 13.3335 42.32 17.1018 42.32ZM17.1018 31.0626H28.1952C30.634 31.0626 32.6184 33.0468 32.6184 35.4858C32.6184 37.9248 30.634 39.909 28.1952 39.909H17.1018C14.6629 39.909 12.6785 37.9248 12.6785 35.4858C12.6785 33.0468 14.6629 31.0626 17.1018 31.0626Z" fill="black"/>
<path d="M17.5725 38.7966C19.4009 38.7966 20.8832 37.3143 20.8832 35.4858C20.8832 33.6573 19.4009 32.175 17.5725 32.175C15.744 32.175 14.2617 33.6573 14.2617 35.4858C14.2617 37.3143 15.744 38.7966 17.5725 38.7966Z" fill="black"/>
<path d="M27.7248 38.7966C29.5533 38.7966 31.0356 37.3143 31.0356 35.4858C31.0356 33.6573 29.5533 32.175 27.7248 32.175C25.8963 32.175 24.4141 33.6573 24.4141 35.4858C24.4141 37.3143 25.8963 38.7966 27.7248 38.7966Z" fill="black"/>
</svg>
