<svg width="24" height="24" viewBox="0 0 24 24" fill="none" xmlns="http://www.w3.org/2000/svg">
<path d="M17.5019 4.21406L17.5017 4.2139L15.7717 3.2239L15.7643 3.2197L15.7644 3.21964C15.222 2.89697 14.5063 3.08269 14.1711 3.64326L14.0638 3.8286C14.0636 3.82896 14.0634 3.82931 14.0632 3.82967C13.5599 4.70708 12.8257 5.25744 11.9888 5.25744C11.1522 5.25744 10.4157 4.70754 9.90741 3.83067L9.90729 3.83046L9.79729 3.64046L9.79553 3.63742L9.79554 3.63741C9.48218 3.08729 8.77192 2.89464 8.22565 3.21964L8.21837 3.22397L8.21834 3.2239L6.48834 4.2139L6.48807 4.21406C5.82207 4.59463 5.58942 5.45646 5.97313 6.13013C6.48124 7.00234 6.59087 7.91159 6.17295 8.63504C5.75511 9.35836 4.91145 9.71994 3.9 9.71994C3.13443 9.71994 2.5 10.3478 2.5 11.1199V12.8799C2.5 13.6455 3.12785 14.2799 3.9 14.2799C4.91153 14.2799 5.75545 14.6416 6.17321 15.3665C6.59079 16.0911 6.48109 17.0025 5.97345 17.8792C5.58991 18.5518 5.8208 19.4045 6.48807 19.7858L6.48834 19.786L8.21834 20.776L8.22568 20.7802L8.22565 20.7802C8.76799 21.1029 9.48371 20.9172 9.81889 20.3567L9.92622 20.1713C9.92639 20.171 9.92657 20.1707 9.92674 20.1704C10.4301 19.2929 11.1642 18.7424 12.0012 18.7424C12.8378 18.7424 13.5743 19.2923 14.0826 20.1692L14.0827 20.1694L14.1911 20.3566C14.5263 20.9172 15.242 21.1029 15.7844 20.7802L15.7916 20.7759L15.7917 20.776L17.5217 19.786L17.5219 19.7858C18.1902 19.404 18.4191 18.5413 18.0371 17.8801L17.5019 4.21406ZM17.5019 4.21406C18.1696 4.59558 18.4004 5.44903 18.0159 6.12187M17.5019 4.21406L18.0159 6.12187M18.0159 6.12187C17.5131 6.99922 17.4072 7.91045 17.826 8.63412M18.0159 6.12187L17.826 8.63412M17.826 8.63412C18.245 9.35813 19.0881 9.71994 20.1 9.71994M17.826 8.63412L20.1 9.71994M20.1 9.71994C20.8705 9.71994 21.5014 10.3533 21.51 11.1225L20.1 9.71994ZM8.25 11.9999C8.25 14.0661 9.93386 15.7499 12 15.7499C14.0661 15.7499 15.75 14.0661 15.75 11.9999C15.75 9.93379 14.0661 8.24994 12 8.24994C9.93386 8.24994 8.25 9.93379 8.25 11.9999Z" fill="#2FA2B9" stroke="#2FA2B9"/>
</svg>
